<?xml version="1.0" encoding="utf-8"?>
<!-- Generator: Adobe Illustrator 24.0.0, SVG Export Plug-In . SVG Version: 6.00 Build 0)  -->
<svg version="1.1" id="图层_1" xmlns="http://www.w3.org/2000/svg" xmlns:xlink="http://www.w3.org/1999/xlink" x="0px" y="0px"
	 viewBox="0 0 1280 640" style="enable-background:new 0 0 1280 640;" xml:space="preserve">
<style type="text/css">
	.st0{clip-path:url(#SVGID_2_);}
	.st1{fill:#DFDFE1;}
	.st2{clip-path:url(#SVGID_2_);fill:#25453B;}
	.st3{fill:#C53F1C;}
	.st4{fill:#3D3D3D;}
	.st5{fill:#8A2D15;}
	.st6{fill:#E8623E;}
	.st7{fill:#FFC684;}
	.st8{fill:#AC3516;}
	.st9{fill:#FF8D70;}
	.st10{fill:#25453B;}
	.st11{fill:#F0B84E;}
	.st12{fill:#FFA33A;}
	.st13{fill:#D34D2B;}
	.st14{fill:#313131;}
	.st15{fill:#FF0000;}
</style>
<g>
	<defs>
		<path id="SVGID_1_" d="M1265.7,645H183.5c-9,0-16.3-7.3-16.3-16.3V34.3c0-9,7.3-16.3,16.3-16.3h1082.2c9,0,16.3,7.3,16.3,16.3
			v594.5C1282,637.8,1274.7,645,1265.7,645z"/>
	</defs>
	<clipPath id="SVGID_2_">
		<use xlink:href="#SVGID_1_"  style="overflow:visible;"/>
	</clipPath>
	<g class="st0">
		<path class="st1" d="M845.6,207.2c0.2-0.3,0-0.7-0.4-0.5c-0.1,0-0.1,0.1-0.2,0.1c-0.1,0-0.2,0.1-0.3,0.2c-1.3,0.6-2.1,1.8-3.3,2.6
			c-5.3,3.3-7.8,1.1-12.1-2c-2-1.4-8-3.7-10.2-1.8c-0.1,0-0.1,0-0.1,0.1c0,0,0,0,0,0.1c-0.9,1-0.9,3.1-1.5,4.3
			c-1.3,2.7-3.3,5.3-6.5,5.8c-4.8,0.7-9.5-2.1-10.2-6.6c0.1-0.4,0.1-0.9,0.2-1.4c0-0.3,0.1-1.9,0.5-2c0.6-0.1,0.7,1,0.7,1.3
			c0,0.1,0,0.2,0,0.3c0.1,4.2,3.7,7.6,8.1,6.8c6.6-1.2,7.8-7.3,5.6-13c-2.2-5.9-8.4-10.1-15-7.6c-2.3,0.9-5.5,2.8-6.8,4.9
			c-0.5,0.8-0.9,1.7-1.3,2.6c-0.1,0-0.1,0.1-0.2,0.2c-3.3-1.1-6.4,2-8.3,4.6c-2.4,3.5-1.3,7.6-7.1,8.7c-3.2,0.6-5.1-2-7.7-1.5
			c-0.2,0-0.3,0.3-0.3,0.5c-0.1,1.8,1.4,3.8,2.3,5.4c1.2,2.2,2.8,4.1,5.3,4.9c5.2,1.7,9.7,0.1,14.2-2.1c0.2,0,0.4,0,0.6,0
			c2.7,0.8,4.7,2.2,7.3,3.4c3.1,1.5,7.3,1.7,10.7,1.1c2.4-0.5,5.6-2.2,7.5-4.4c0,0,0.1,0,0.1,0c0.5-0.8,1.3-1.2,2.2-1.4
			c1.2,0,2.3,0.1,3.5,0.2c2.6,0.6,5.5,1.8,7.2,1.8c2.3,0.1,5.6-0.1,7.7-1.1c1.6-0.8,2.9-1.9,3.8-3.3c0.9-1.1,1.6-2.4,1.9-3.8
			c0.4-1.1,0.7-2.3,1-3.4c0.2-0.3,0.3-0.6,0.2-0.9c0.2-0.9,0.4-1.7,0.6-2.5C845.6,207.3,845.6,207.2,845.6,207.2z"/>
		<path class="st1" d="M1178.4,189.4c0.2,0.8,0.4,1.6,0.6,2.5c-0.1,0.3,0,0.6,0.2,0.9c0.3,1.1,0.6,2.3,1,3.4
			c0.3,1.4,0.9,2.7,1.9,3.8c0.9,1.4,2.2,2.5,3.8,3.3c2.1,1,5.4,1.1,7.7,1.1c1.8-0.1,4.6-1.3,7.2-1.8c1.1-0.1,2.3-0.2,3.5-0.2
			c0.9,0.2,1.7,0.6,2.2,1.4c0,0,0.1,0,0.1,0c1.9,2.3,5,4,7.5,4.4c3.4,0.6,7.5,0.4,10.7-1.1c2.6-1.2,4.6-2.6,7.3-3.4
			c0.2,0,0.4,0,0.6,0c4.5,2.1,8.9,3.8,14.2,2.1c2.5-0.8,4-2.7,5.3-4.9c0.9-1.5,2.4-3.5,2.3-5.4c0-0.2-0.1-0.4-0.3-0.5
			c-2.6-0.5-4.5,2.1-7.7,1.5c-5.7-1.1-4.6-5.2-7.1-8.7c-1.8-2.6-5-5.6-8.3-4.6c-0.1-0.1-0.1-0.1-0.2-0.2c-0.4-1-0.8-1.9-1.3-2.6
			c-1.3-2.1-4.5-4-6.8-4.9c-6.5-2.5-12.7,1.7-15,7.6c-2.2,5.7-0.9,11.8,5.6,13c4.5,0.8,8.1-2.5,8.1-6.8c0-0.1,0-0.2,0-0.3
			c0-0.3,0.1-1.4,0.7-1.3c0.4,0.1,0.5,1.6,0.5,2c0,0.5,0,0.9,0.2,1.4c-0.6,4.5-5.4,7.3-10.2,6.6c-3.1-0.5-5.1-3.1-6.5-5.8
			c-0.6-1.1-0.6-3.3-1.5-4.3c0,0,0,0,0-0.1c0,0-0.1,0-0.1-0.1c-2.2-1.9-8.3,0.4-10.2,1.8c-4.3,3.1-6.7,5.3-12.1,2
			c-1.2-0.7-2-1.9-3.3-2.6c-0.1-0.1-0.2-0.1-0.3-0.2c-0.1,0-0.1-0.1-0.2-0.1c-0.4-0.1-0.5,0.3-0.4,0.5
			C1178.4,189.3,1178.4,189.4,1178.4,189.4z"/>
		<path class="st1" d="M1123.8,224.2c0.2,0.2,0.3,0.3,0.4,0.5c0,0.1,0.1,0.2,0.2,0.3c0.8,1.1,1.3,2.1,3,2.8c1.5,0.6,3.1,0.6,4.6,0.3
			c2.9-0.4,4.6-1.2,7.2,0.7c0.5,0.4,1.1,0.7,1.7,1.1c3.2,3.4,9.7,1.9,12.6-1.3c1.9-2.1,3.1-6.4,2.6-9.7c-0.2-2.2-1.1-4.7-2.1-6.3
			c-0.9-1.5-3.2-2.9-4.8-3.5c-4.7-1.8-9.1,1.2-10.7,5.5c-1.6,4.1-0.7,8.5,4,9.3c3.2,0.6,5.8-1.8,5.8-4.8c0-0.1,0-0.1,0-0.2
			c0-0.2,0.1-1,0.5-0.9c0.3,0.1,0.3,1.2,0.4,1.4c0,0.3,0,0.7,0.1,1c-0.5,3.2-3.8,5.2-7.3,4.7c-2.2-0.3-3.7-2.2-4.6-4.1
			c-0.4-0.9-0.4-2.5-1.2-3.2c-0.6-0.5-1.9-0.3-2.7-0.1c-1.8,0.5-3.2,1.8-4,3.5c-0.5,1.2-0.6,1.9-1.8,2.6c-1,0.6-2.1,0.4-3.1,0.4
			c-0.1,0-0.1,0-0.2,0c-0.2-0.2-0.1-0.2-0.5-0.2C1123.8,223.9,1123.7,224,1123.8,224.2z"/>
		<path class="st1" d="M864.1,250.4c0.2,0.1,0.4,0.3,0.5,0.4c0,0.1,0.1,0.2,0.3,0.2c1.1,0.9,1.8,1.8,3.5,2.1
			c1.6,0.3,3.1-0.1,4.6-0.6c2.7-1,4.3-2.1,7.2-0.8c0.6,0.2,1.3,0.5,1.9,0.7c3.8,2.7,9.9-0.2,12-3.9c1.4-2.5,1.7-6.9,0.5-10.1
			c-0.7-2.1-2.1-4.3-3.4-5.7c-1.2-1.3-3.7-2.1-5.5-2.4c-4.9-0.8-8.6,3.1-9.3,7.6c-0.7,4.3,1.1,8.4,5.9,8.2c3.2-0.1,5.3-3,4.7-6
			c0-0.1,0-0.1,0-0.2c0-0.2-0.1-1,0.3-1c0.3,0,0.6,1.1,0.7,1.3c0.1,0.3,0.1,0.6,0.3,0.9c0.2,3.3-2.6,5.9-6.1,6.1
			c-2.2,0.1-4-1.4-5.4-3.1c-0.6-0.7-0.9-2.4-1.8-2.9c-0.7-0.4-1.9,0.1-2.6,0.5c-1.7,0.8-2.8,2.4-3.2,4.3c-0.3,1.2-0.2,2-1.3,3
			c-0.9,0.8-1.9,0.9-3,1.1c-0.1,0-0.1,0-0.2,0.1c-0.2-0.1-0.2-0.1-0.6-0.1C864,250.1,864,250.3,864.1,250.4z"/>
		<path class="st1" d="M1321.5,277.6c-0.4-0.4-1-0.4-1.4-0.1c-0.4-0.1-0.8-0.2-1.3,0.1c-6.1,3.3-9.2-5.2-13.2-8.1
			c-3.2-2.4-7.8-3.2-11.6-1.4c-6.1,2.8-3.5,9.6,1.5,11c0.4,0.1-1.2,1.4-1.6,1.4c-1.3,0-3.1-1.8-4-2.7c-2.3-2.8-2.8-6.3-1-9.4
			c0.8-1.4,2.6-2.4,4.7-4.2c1.9-1.7-6.9-7.7-6.9-7.5c-1.7,7.6-7.4,16.3-16.5,14.6c-6.2-1.1-10.3-7.7-10.2-10.2
			c-0.3-3.3,0.9-4.6,2.9-4c-1.6,7.5,5.3,14.7,13.2,11.6c9.5-3.8,10.9-16,5.9-23.9c-5.5-8.7-15.9-11.3-24.8-6.6
			c-5.6,3-13.3,11.5-13.1,19.1c-3.6-1.8-10,0.2-13,2.7c-3.2,2.6-3.7,5.6-5.1,9.1c-2.9,7.6-6,3.1-10.7,1.5c-2.3-0.8-3.8-0.5-6,0.3
			c-0.7,0.2-1.3,1.3-1.2,2.1c0.2,1.3,2.5-0.8,3.5,4.5c1.2,6.6,5.7,11.1,8.3,12.9c3.3,2.3,9.4,2.4,12.7-0.2c0.4-0.3,1.5-2.1,2-2.6
			c0,0.6,3.2,2.8,3.1,2.7c1.7,0.8,3.4,1.2,5.3,1.3c6.3,0.4,10.9-6.2,9-10.9c-1.4-3.5-5.6-5.2-9.2-5c2.2-0.7,4.7-0.6,6.9,0.3
			c2.2,0.9,4,1.9,5,4.3c1.2,2.9-0.2,5.1-1.8,7.4c-0.3,0.4-0.3,0.8-0.2,1.1c-0.6,6.8,12.5,9.6,17.6,9.2c7.5-0.6,13-4.4,17.2-10.4
			c-0.2,0.3,3.9,3.5,4.2,3.6c6.4,4.2,16.3,3.4,19.7-4.4c0.4,0.1,0.8,0.1,1.2,0.1c2,0.2,3.9,0.1,5.8-0.5
			C1321.1,285.4,1324.4,280.3,1321.5,277.6z"/>
		<path class="st1" d="M828.5,313.6c-0.4-0.4-1-0.4-1.5-0.1c-0.4-0.2-0.9-0.2-1.4,0.1c-6.4,3.5-9.6-5.4-13.7-8.4
			c-3.3-2.5-8.1-3.3-12.1-1.5c-6.3,2.9-3.6,9.9,1.6,11.4c0.4,0.1-1.2,1.5-1.7,1.5c-1.4,0-3.3-1.8-4.1-2.8c-2.4-2.9-2.9-6.5-1-9.8
			c0.8-1.5,2.7-2.5,4.9-4.4c2-1.8-7.1-8-7.2-7.7c-1.8,7.9-7.7,16.9-17.1,15.2c-6.4-1.2-10.7-8-10.5-10.5c-0.3-3.5,0.9-4.8,3-4.1
			c-1.6,7.8,5.5,15.3,13.7,12c9.8-3.9,11.3-16.6,6.1-24.8c-5.7-9-16.5-11.7-25.8-6.9c-5.8,3.1-13.8,11.9-13.6,19.8
			c-3.8-1.9-10.3,0.2-13.5,2.8c-3.3,2.7-3.9,5.8-5.3,9.5c-3,7.9-6.2,3.2-11.1,1.6c-2.4-0.8-3.9-0.5-6.3,0.3
			c-0.8,0.2-1.4,1.4-1.3,2.1c0.2,1.3,2.6-0.8,3.7,4.7c1.3,6.8,6,11.5,8.6,13.4c3.5,2.4,9.8,2.5,13.1-0.2c0.4-0.4,1.5-2.2,2.1-2.7
			c0,0.7,3.3,2.9,3.2,2.8c1.7,0.8,3.6,1.2,5.5,1.4c6.6,0.4,11.3-6.4,9.4-11.3c-1.4-3.6-5.8-5.4-9.6-5.2c2.3-0.8,4.9-0.7,7.1,0.3
			c2.3,1,4.1,2,5.2,4.5c1.3,3-0.2,5.3-1.9,7.7c-0.3,0.4-0.3,0.8-0.2,1.2c-0.6,7.1,12.9,9.9,18.2,9.6c7.8-0.6,13.5-4.6,17.9-10.8
			c-0.2,0.3,4.1,3.6,4.4,3.8c6.7,4.3,17,3.5,20.4-4.6c0.4,0.1,0.9,0.1,1.3,0.1c2,0.2,4,0.1,6-0.5
			C828.1,321.7,831.5,316.4,828.5,313.6z"/>
	</g>
	<path class="st2" d="M1441,619.8c0-20.5-0.3-41.2-2.3-61.6c-1.9-20.3-4.1-40.8-4-61.2c0-3.5,2-46.6,2.6-54.1
		c0.4-0.6,0.6-1.4,0.3-2.1l0-0.6c0-0.9-0.4-1.4-1-1.6c-3.8-8.1-7.7-17-14.6-22.8c-3.8-3.2-8.5-4.7-13.3-5.7
		c-7.9-1.6-12.3-5.9-17.9-11.4c-7.9-7.7-14.8-11.9-25.9-12.2c-15.1-0.3-28.6-0.5-41.3-10c-0.2-0.1-0.4-0.3-0.6-0.4
		c-1.7-1.7-3.7-3-5.9-4.3c-6.1-4.3-12.2-7.8-19.7-9.7c-1-1-1.3-2.3-1.9-4.6c-2.8-9.7-10.5-22.4-20-26.9c-4.3-2-9.8-2.1-14.4-1.7
		c-4,0.3-6.3,1.5-8.8,3.5c-2.1-7.4-5.9-14.6-14.4-16.3c-5.9-1.2-13.9,0.3-18.7,4.6c-2.1-6.7-7.1-13.6-12.1-17.7
		c-5.7-4.7-13.3-2-18.5,2c-0.3,0.2-0.4,0.4-0.4,0.7c-3.5,1.6-5.6,5.5-6.6,9.5c-0.2,0.7-0.3,1.5-0.4,2.2c-1.2-0.7-2.5-1.3-3.9-1.9
		c-9.5-3.8-21.8-4.5-31.9-3.2c-7.9,1-13.5,3.6-21-0.7c-5.4-3.1-10.5-6.6-16-9.5c-9.8-5.1-16.8-6.8-27.6-3.2
		c-12.7,4.2-22.8,11.3-36.4,6.7c-10.4-3.5-17.1-8.4-28.3-8.8c-9.8-0.3-18.9,0.6-28.3,2.6c0-0.5-0.1-0.9-0.1-1.4
		c-2.1-14.1-5-28.5-8.2-42.7c0.5-0.2,0.9-0.6,1.2-1.2c0.3-0.6,0.6-1.1,0.8-1.7c0.4-0.8,0-1.7-0.4-2.3c-1.1-1.6-2.4-3-3.9-4.1
		c-0.4-1.4-0.7-2.9-1.1-4.4c-0.1-0.8-0.7-1-1.3-0.9c-0.6,0.1-1.1,0.5-0.9,1.2c0.1,0.7,0.2,1.5,0.3,2.2c-0.7-0.3-1.5-0.6-2.2-0.8
		c-2.4-3.3-6.9-4.6-11-4.8c-5.3-0.2-8.5,2.3-10.7,6.2c-4.6-3.5-11.2-5-16-1c-3.1,2.6-2.7,6.1-1.3,9.5c-0.3,0.4-0.5,0.7-0.7,1.1
		c-1.8-0.4-3.6-0.4-5.4,0c-2.5,0.6-4.5,2.6-5.7,4.8c-0.3,0.5-0.4,1-0.6,1.4c-2.5-1.3-5.2-2-7.9-1.7c-3,0.4-5.9,1.9-8,4.2
		c-0.6,0.7-1,1.3-1.4,2.1c-8.5-1.8-19,3.3-15.7,12.1c-5.9-0.7-11.9,2.8-14.7,8c-3.1-2.8-7-4.6-10.8-4c-2.8,0.4-6.4,2.1-8.4,4.1
		c-0.8,0.8-1.2,1.6-1.4,2.5c-2.8-0.7-5.8-0.4-9.4,0.9c-5,1.8-10.5,6.1-10.1,11.5c-2.7,0-5.5,0.4-8,1.2c-6.3,1.9-8.9,4.9-9.4,9.9
		c-2.7-0.1-5.5,0.5-8.4,2.1c-3.4,1.8-5.7,4.5-6.5,7.6c-2.9-1.1-6.1-0.9-8.5,1.2c-2,1.8-3.7,5.3-4.6,7.9c-0.4,1.1-0.7,2.5-0.8,3.7
		c-3.5-0.3-7,0.4-9.4,2.7c-1.9,1.8-3.3,4.5-3.6,7.3c-0.2-0.1-0.3-0.2-0.5-0.3c-3.1-1.6-7.7-2.1-10.9-0.8c-3.7,1.4-6.5,5.5-7.5,9.9
		c-1.4-0.8-2.9-1.3-4.5-1.3c-2.9,0-4.8,2.3-6,4.6c-0.6,1.2-1.1,2.4-1.4,3.7c-6.1-2.7-13.1-2.5-18.3,2.4c-6.4,6-3.1,14.2,3,18.7
		c0,0,0.1,0,0.1,0.1c2.6,3.5,6.4,5.7,10.6,5.7c1.6,1.5,3.4,2.8,5.4,3.8c-5.3,0.7-10.6,2-15,5.3c-3.8,2.8-6.6,7.1-10.6,9.7
		c-2.5,1.6-5.5,2.4-8.5,2.8c0.7-4.3,1.2-8.6,1.2-12.8c0-3.4,0-6.7-1.2-9.2c-0.2-1.1-0.4-2.1-0.7-3.2c0.5-0.3,0.8-0.9,0.6-1.5
		c-2.6-7.2-13.2-4.3-17.4-0.4c-3.4,3.2-5.3,7.5-6.2,12c-2.7-2.1-5.4-3.7-9.6-3.5c-5.6,0.3-13.1,3-17.6,6.5c-4.3,3.4-6.5,8.5-8,13.6
		c-3.8-6.6-10.4-10.5-18.6-7.4c-2.5,1-4.6,2.3-6.3,3.8c-3.1-0.6-6.8,0.1-10,1.3c-4.5-4.8-14-4.8-19.7-2.4
		c-6.3,2.7-9.4,7.8-11.9,13.5c-1,0-1.9-0.1-2.9,0c-1.8,0.1-5.1,0.5-8.3,1.5c-6.3,0.6-13.6,6.8-16.4,12.3c-1.9,3.7-3,8-3.4,12.4
		c-8.1-1.8-16.3,4.5-21.3,10.9c-2.6,3.4-4.8,7.4-6.2,11.5c-2.9-1.2-6.8-1.1-9.3-0.7c-10.2,1.5-18.4,8.8-24.7,16.6
		c-7.2,9.1-12.2,20.7-13.7,32.5c-0.1,0-0.1-0.1-0.2-0.1c-4.6-1.6-9-2.2-13.8-2.2c-9.5,0-17,3.2-24.3,9.2
		c-15.8,12.9-19.5,29.3-21.6,48.1c-4.5-4.5-9.7-5.7-17.1-7.7c-9.2-2.5-16.2-3.3-24.3,2.7c-7.8,5.7-13.1,15.2-15.4,24.5
		c-1.2,4.7-1.8,9.6-1.6,14.4c0.1,3.2,1.1,6.8,1.4,10.2c-19.6-6.6-40.5,5.2-42.1,27.3c-1.4,19.6,15.5,20.6,32.2,17.6
		c0.3,0.3,0.6,0.5,1,0.7c1.5,0.8,3-0.3,3.3-1.6c1.8-0.4,3.6-0.8,5.3-1.2h1077.9v-0.6c2.9-0.8,3.3-2.9,3.6-6.1
		C1442.9,640.9,1441,630,1441,619.8z"/>
	<g class="st0">
		<g>
			<path class="st3" d="M1169.5,324.7l33.5-2c0.4,0,0.8-0.4,0.7-0.8l-9.8-74.1c-0.1-0.4-0.4-0.7-0.8-0.7l-23.2,0.5
				c-0.5,0-0.8,0.4-0.7,0.9l1.3,8.2c0.1,0.5-0.3,0.9-0.7,0.9l-8.6,0.1c-0.4,0-0.8-0.3-0.8-0.8l0.2-6.8c0-0.4-0.3-0.8-0.8-0.8
				l-22.3,0.1c-0.4,0-0.7,0.3-0.7,0.7l-0.3,8.3c0,0.4-0.4,0.7-0.8,0.7l-7.4-0.3c-0.4,0-0.7-0.4-0.7-0.8l0.2-6.9
				c0-0.4-0.3-0.8-0.8-0.8l-21.7,0.5c-0.4,0-0.7,0.3-0.7,0.8l0.1,13.6c0,0.4-0.3,0.8-0.7,0.8l-6.3,0.1c-0.4,0-0.8-0.3-0.8-0.7
				l-0.2-12.9c0-0.4-0.4-0.8-0.8-0.7l-22.4,0.8c-0.4,0-0.7,0.3-0.7,0.7l-1.5,53.5l-0.6,17.5c0,0.4,0.3,0.8,0.8,0.8L1169.5,324.7
				C1169.5,324.7,1169.5,324.7,1169.5,324.7z"/>
			<g>
				<path class="st4" d="M1136.6,292c-11.2-0.4-7.8,25.9-7.8,25.9l14.3,0.5C1143.1,318.4,1147.8,292.4,1136.6,292z"/>
				<path class="st4" d="M1175.5,289.4c-7.3,0.4-3.7,17.3-3.7,17.3l9.3-0.5C1181.2,306.2,1182.8,289.1,1175.5,289.4z"/>
			</g>
			<path class="st5" d="M1199.4,273.3c-22.6,1-45.1,2.6-67.7,4c-20.1,1.3-40.8-0.6-60.7,2c-0.8,0.1-0.9,1.5-0.1,1.6
				c10,2.1,20.2,0.5,30.3,0.2c9.5-0.3,19,0.1,28.5-0.5c23.2-1.5,46.2-3.4,69.5-3.2C1202,277.5,1202.1,273.2,1199.4,273.3z"/>
		</g>
		<g>
			<g>
				<path class="st6" d="M1058.4,305.2c-7.1-2-65.4-27.5-71.1-32c-4.2-3.4-12.3-18.1-12.1-25.1c6.6,0.2,52.9,0.8,52.9,0.8l88.5,3
					l-34.6-39.4l-4.9,0.2l-0.3-14l-40-9.3l-14.7,4.1l-0.3,9.3l-4.2-0.1l-0.2-8.5l-13.7,4.7c0,0,0.2,4.7,0.1,8.2
					c-4.4-0.9-15.4-2.6-23.9-3.4c-15.2-1.6-27.5-1.3-35.8,5.6c-8.3,6.9-8.4,17-8.7,24.7c-0.4,9.2-2.6,69.4-1.5,78.8
					c1.1,9.4,38.8,16.4,58.5,14.3c3-1.1,66.3-21.9,66.3-21.9"/>
				<path class="st7" d="M981.1,217.8c-5.1-0.4-36.9,1.4-39.1,23.9c-2.3,24.2,42.8,36.4,42.8,36.4s-14.5-12-14.7-33.3
					C970,224.4,975.3,222.5,981.1,217.8z"/>
				<g>
					<g>
						<path class="st5" d="M1079.4,210.7c-13.9-2.9-27.8-5.5-41.6-8.4c-0.1,0-0.2,0-0.3,0c0,0,0,0,0,0c0,0-0.1,0-0.1,0c0,0,0,0,0,0
							c-2.1,0.5-4,1.4-6.1,1.9c-2.8,0.7-5.6,1.4-8.5,1.9c-0.4,0.1-0.4,0.8,0.1,0.8c4.8,0,10.8-1.3,15.1-3.5c0.1,0,0.1-0.1,0.1-0.2
							c5.8,2.5,12.9,3,19,4c7.4,1.3,14.7,3.1,22,4.6C1079.8,212.1,1080.2,210.9,1079.4,210.7z"/>
						<g>
							<path class="st5" d="M1028.5,195.2c-0.3,0-0.5,0.1-0.6,0.3c0,0-0.1,0-0.1,0.1c0,0,0,0.1,0,0.1c0,0.1-0.1,0.2-0.1,0.2
								c-0.2,0.5-0.3,1.1,0,1.5c0.1,0.2,0.3,0.3,0.6,0.3c0.2,0,0.3,0,0.5,0c0.3,0,0.5-0.2,0.5-0.5
								C1029.3,196.4,1029.5,195.2,1028.5,195.2z"/>
							<path class="st5" d="M1028.2,199.8c-0.5,0-0.7,0.3-0.7,0.7c-0.3,0.5-0.4,1.3,0,1.6c0.6,0.5,1.5-0.1,1.7-0.7
								C1029.3,200.8,1029,199.8,1028.2,199.8z"/>
							<path class="st5" d="M1012.8,200.6c0-0.2-0.3-0.4-0.5-0.4c-0.7-0.1-1,0.2-1.1,0.7c-0.2,0.4-0.3,0.9-0.1,1.2
								c0.2,0.6,0.9,0.5,1.4,0.4c0.2,0,0.4-0.3,0.4-0.5C1012.9,201.6,1012.9,201.1,1012.8,200.6z"/>
							<path class="st5" d="M1012.8,204.8c-0.2-0.3-0.7-0.5-1.1-0.4c-0.6,0.2-0.5,0.9-0.4,1.4c0,0,0,0,0,0c0,0.1,0,0.2,0,0.3
								c0,0.2,0.1,0.4,0.3,0.4c0.4,0.1,0.8,0.1,1.1-0.3C1012.9,205.9,1013,205.2,1012.8,204.8z"/>
							<path class="st5" d="M1043.7,194.6c0-0.7-0.4-1-1.1-1c-0.3,0-0.4,0.2-0.5,0.4c-0.2,0-0.3,0.1-0.3,0.4c0,0.6-0.3,1.5,0.2,1.9
								c0.4,0.3,1.2,0.3,1.5,0C1043.7,195.8,1043.7,195,1043.7,194.6z"/>
							<path class="st5" d="M1047.1,199.8c-0.2,0-0.4,0.3-0.4,0.4c0,0,0,0,0,0.1c-0.3,0.6-0.4,1.4-0.1,1.8c0.1,0.1,0.3,0.3,0.4,0.3
								c0.8-0.1,1.8,0,1.8-1.1C1048.7,200.1,1048.3,199.6,1047.1,199.8z"/>
							<path class="st5" d="M1053.5,196.5c-0.2-0.4-0.5-0.3-0.9-0.4c-1.1-0.1-1.2,0.6-1,1.5c-0.1,0.4-0.1,0.7,0.2,1
								c0.3,0.2,1.1,0.2,1.4,0.1c0.4-0.2,0.4-0.5,0.4-0.8C1053.7,197.5,1053.7,196.9,1053.5,196.5z"/>
							<path class="st5" d="M1058.4,201.7c-0.5-0.1-0.9,0-1.1,0.2c-0.1-0.1-0.2-0.1-0.2,0.1c-0.2,0.4-0.2,0.8-0.3,1.3
								c0,0.1,0.1,0.3,0.2,0.3c0.4,0.2,1.1,0.3,1.5,0c0.4-0.3,0.3-1,0.3-1.4C1058.7,202,1058.6,201.7,1058.4,201.7z"/>
							<path class="st5" d="M1063.5,199.4c0-0.3,0-0.7-0.1-1c-0.2-0.3-0.9-0.7-1.3-0.5c-0.1,0-0.1,0.1-0.1,0.1
								c0-0.1-0.2-0.2-0.3-0.1c-0.5,0.6-0.6,1.7-0.3,2.4c0.1,0.3,0.4,0.3,0.7,0.2c0.5-0.2,1.2,0.4,1.5-0.3
								C1063.7,199.9,1063.6,199.7,1063.5,199.4z"/>
							<path class="st5" d="M1067.3,204.1c-0.1,0-0.1,0.1-0.2,0.1c0,0,0,0,0,0c0,0,0,0,0,0.1c0,0,0,0,0,0.1
								c-0.3,0.5-0.3,1.2-0.3,1.8c0,0.2,0.2,0.5,0.4,0.5c1.2,0,1.6-0.2,1.6-1.5C1068.8,204.2,1068.1,204,1067.3,204.1z"/>
							<path class="st5" d="M1073.6,200.8c0-0.2-0.2-0.3-0.4-0.3c-0.4,0-0.8,0-1.2,0c-0.3,0-0.5,0.3-0.4,0.6c0,0,0,0.1,0,0.1
								c-0.1,0.3-0.2,0.7,0,1c0.3,0.5,1,0.3,1.4,0.5c0.3,0.1,0.6-0.1,0.7-0.5C1073.8,201.7,1073.7,201.2,1073.6,200.8z"/>
						</g>
						<path class="st8" d="M1097.3,244.8c-1.2-1.8-2.2-3.7-3.4-5.5c-2.3-3.4-4.8-6.6-7.4-9.8c0.1-0.2,0-0.4-0.3-0.4
							c-1.6-0.3-3.3-0.3-4.9-0.6c-0.4-2.6-0.2-5.3-0.6-7.9c0,0,0.1-0.1,0.1-0.1c0.1-0.3-0.1-0.6-0.4-0.6l-42.8-9.6
							c-0.1,0-0.1,0-0.2,0l-6.7,0.9c-0.3,0-0.5,0.3-0.4,0.6c0,0.3,0.3,0.5,0.6,0.4l6.6-0.9l42.7,9.6c0,0,0,0,0,0
							c-0.2,1.1,0,2.4,0,3.5c-0.1,1.4,0.1,2.9,0.3,4.3c0,0.3,0.3,0.4,0.5,0.3c0.8,0.3,1.7,0.4,2.5,0.6c0.8,0.2,1.8,0.3,2.7,0.3
							c0,0,0,0,0,0c0.5,1.1,1.8,2.4,2.4,3.2c1.3,1.8,2.5,3.7,3.8,5.5c2,2.9,3.9,5.9,5.7,9c0.1,0.3,0.5,0.2,0.6-0.1
							C1098.9,246.4,1097.8,245.5,1097.3,244.8z"/>
					</g>
					<g>
						<g>
							<path class="st5" d="M976.3,274.8c0-0.2-0.1-0.3-0.3-0.4c-0.8-0.3-1.7,0.1-2.3,0.5c-0.2,0.1-0.1,0.3,0,0.4
								c-1.1,1.1-0.8,2.6-0.9,4.6c0,1.4-0.2,2.8-0.1,4.1c0,0.5,0,1,0.5,1.3c1.1,0.6,1.6-0.9,1.7-1.7c0.1-0.6,0-1.5-0.1-2.4
								c0.2-0.6,0.2-1.2-0.1-1.6c-0.1-1.9-0.1-3.7,1.4-4.4c0.1,0,0.2-0.2,0.2-0.3C976.3,274.9,976.3,274.9,976.3,274.8z"/>
							<path class="st5" d="M978.1,290.8c-0.5,0.3-0.4,0.7-0.5,1.3c-0.1,0.5-0.1,1,0,1.5c0.1,0.3,0.4,0.2,0.5,0c0,0,0,0,0,0
								c0,0,0,0,0,0c0,0,0,0,0,0c0.3-0.7,0.2-1.6,0.6-2.3C978.9,290.8,978.3,290.6,978.1,290.8z"/>
							<path class="st5" d="M988.2,296.2c-0.2-0.2-0.5,0-0.7,0.2c-0.5,0.7-0.5,1.7-0.2,2.4c0.1,0.2,0.3,0.1,0.3,0l0,0
								c0.2-0.6,0.5-1.3,0.7-1.9C988.5,296.5,988.5,296.4,988.2,296.2z"/>
							<path class="st5" d="M999.5,300.2c-0.1-0.2-0.4-0.2-0.6,0c-0.6,0.7-0.3,1.7-0.1,2.5c0,0.1,0.3,0.2,0.3,0
								C999.3,301.9,999.9,301,999.5,300.2z"/>
							<path class="st5" d="M1010.4,305.4c0-0.2-0.3-0.3-0.5-0.2c-0.7,0.3-0.8,1.2-0.6,1.9c0.1,0.5,0.9,0.4,0.9-0.1
								C1010.2,306.4,1010.5,306,1010.4,305.4z"/>
							<path class="st5" d="M1021.1,309.8c-0.1-0.4-0.8-0.5-0.9,0c-0.2,0.8-0.1,1.8,0,2.7c0.1,0.3,0.5,0.3,0.6,0
								C1021.1,311.6,1021.2,310.6,1021.1,309.8z"/>
							<path class="st5" d="M1030.6,296.9c0-0.1-0.1-0.2-0.1-0.2c-0.1-0.2-0.2-0.3-0.4-0.3c-0.2,0-0.4,0-0.6,0
								c-0.1-0.1-0.2-0.1-0.3-0.1c-0.7,0.1-1.1,0.3-1.4,0.7c-1.3,0.7-1.6,3.6-1.6,4.6c-0.1,2.1-0.3,4.4-0.2,6.5c0,0.7,0,1.2,0.7,1.5
								c0.2,0.1,0.4,0,0.5-0.1c0.1-0.1,0.1-0.3,0.2-0.4c0.3,0,0.6-0.2,0.6-0.6c0-1.4,0.2-2.7,0.2-4.1c0.2-1.2,0.3-2.5,0.4-3.7
								c0-0.6,0-1.3,0-1.9c0-0.3,0-0.5,0-0.8c0.4-0.2,0.6-0.5,0.7-0.7c0.2,0,0.3,0,0.8,0C1030.4,297.5,1030.7,297.2,1030.6,296.9z"
								/>
							<path class="st5" d="M1041.3,301.5c-0.7-0.7-2.2,0-2.4,0.9c-0.2,0.8-0.2,1.9-0.3,2.7c-0.1,1-0.3,2-0.3,3.1
								c0,0.8,1.2,0.8,1.2,0c0.1-1.3,0.3-2.5,0.4-3.7c0-0.5-0.2-1.5,0.1-1.9c0.2-0.3,0.9-0.6,1.2-0.7
								C1041.4,301.9,1041.5,301.7,1041.3,301.5z"/>
							<path class="st5" d="M1018.9,292.5c0-0.2-0.1-0.3-0.3-0.3c-2.1-0.3-3.1,1.4-3.2,3.3c0,0.4,0,0.8,0,1.2
								c-0.2,1.4-0.2,2.8-0.3,3.9c-0.1,1.2-1.1,4,0.2,4.8c0.2,0.2,0.6,0.1,0.7-0.2c0,0,0-0.1,0-0.1c0.1-0.1,0.2-0.1,0.2-0.2
								c0.6-1.4,0.7-3.1,0.7-4.7c0-2.2,0.6-4.5,0.5-6.7c0-0.1,0-0.2-0.1-0.3c0.3-0.2,0.6-0.4,1-0.5c0.1,0.3,0.6,0.3,0.6-0.1
								C1018.9,292.6,1018.9,292.6,1018.9,292.5z"/>
							<path class="st5" d="M1006.4,288.3c-0.9,0.4-1.1,1.9-1.3,2.9c-0.2,1.5-0.2,3.1-0.2,4.7c0,1.4-0.4,3.1,0,4.4
								c0.1,0.3,0.4,0.4,0.6,0.3c1.2-0.6,1.2-3.4,1.3-4.6c0.1-1.3,0.2-2.5,0.3-3.8c0.1-1.2,0-1.7,1.2-2.5c0.2-0.2,0.7-0.1,0.8-0.4
								C1009.9,287.7,1007.3,287.4,1006.4,288.3z"/>
							<path class="st5" d="M997,283.7c0-0.3-0.2-0.4-0.4-0.5c-0.7-0.1-1.2,0.2-1.8,0.5c-0.2,0.1-0.1,0.3,0,0.4
								c-0.6,0.7-0.5,2.2-0.6,2.9c-0.3,2.5-0.5,5.5-0.3,8c0,0.4,0.4,0.6,0.7,0.4c1.2-0.6,1-3.3,1.1-4.4c0-1.6,0.1-3.5,0.5-5
								C996.3,285.4,997.1,284.5,997,283.7z"/>
							<path class="st5" d="M986.6,278.2c-0.6-0.3-1.4,0-2.1,0.4c0,0-0.1,0-0.1,0c-0.1,0-0.2,0-0.3,0c-0.2,0-0.4,0.1-0.5,0.3
								c-0.5,2-0.2,4.3-0.3,6.3c-0.1,1.4-0.4,3.4,0.5,4.6c0.2,0.2,0.5,0.2,0.7,0c0.9-1,0.6-2.8,0.6-4.1c0-1.2,0.1-2.4,0.1-3.6
								c0-0.7,0.1-1.4,0.7-2c0.2-0.2,0.6-0.2,0.8-0.5C987.2,279.1,987.2,278.6,986.6,278.2z"/>
							<path class="st5" d="M968.2,286.5c0-0.5-0.8-0.6-0.8,0c0,0.6,0.2,1.2,0.2,1.7c0,0,0,0,0,0c0,0,0,0,0,0l0,0
								c0.1,0.2,0.4,0.4,0.5,0C968.4,287.6,968.2,287.2,968.2,286.5z"/>
							<path class="st5" d="M959.3,282.5c0,0.5,0,1,0.2,1.5c0.1,0.3,0.5,0.1,0.5-0.1c0-0.5,0.1-0.9,0.2-1.4
								C960.2,282,959.3,282,959.3,282.5z"/>
							<path class="st5" d="M952,276.9c-0.1-0.4-0.6-0.4-0.7,0c-0.3,0.9-0.1,1.6,0.3,2.5c0.1,0.1,0.2,0.1,0.3,0
								C952.2,278.6,952.2,277.7,952,276.9z"/>
							<path class="st5" d="M944.1,272c-0.1,0.9-0.2,1.6-0.1,2.5c0,0.2,0.3,0.2,0.4,0c0.2-0.8,0.3-1.7,0.4-2.5
								C944.9,271.6,944.2,271.6,944.1,272z"/>
							<path class="st5" d="M940.6,267.4c0,0.7,0,1.3,0.1,2c0,0.2,0.4,0.2,0.4,0c0.2-0.7,0.2-1.3,0.2-2
								C941.3,266.9,940.6,266.9,940.6,267.4z"/>
							<path class="st5" d="M966.8,270.1c-1.1-0.2-2.8,0.4-3,1.7c-0.1,0.7,0.1,1.4,0.1,2.1c0,0.9-0.1,1.8-0.1,2.7
								c0,1.5-0.2,3.1,0.1,4.6c0.1,0.3,0.4,0.3,0.5,0c0.6-2,0.4-4.3,0.5-6.4c0-0.6-0.2-2.9,0.1-3.2c0.3-0.3,1.6-0.6,1.9-0.6
								C967.4,270.9,967.3,270.1,966.8,270.1z"/>
							<path class="st5" d="M958.7,265.3c-0.8,0.5-1.7,0-2.4,0.5c-0.5,0.4-0.7,1.9-0.8,2.5c-0.4,2.6-0.5,6,0,8.6
								c0,0.1,0.3,0.2,0.3,0c0.7-2.4,0.3-5.1,0.5-7.6c0.1-0.9,0.1-2.4,1.1-2.8c0.6-0.2,1.1,0,1.7-0.4
								C959.6,265.8,959.2,265,958.7,265.3z"/>
							<path class="st5" d="M951.9,261c-1.7,0.5-3.1-0.2-3.5,1.8c-0.5,2.7-0.8,6-0.1,8.7c0,0.1,0.1,0.1,0.1,0
								c0.7-2.2,0.4-4.6,0.7-6.9c0-0.3,0.1-0.7,0.1-1c0.1-0.8,0-1,0.6-1.3c0.5-0.3,1.6-0.2,2.3-0.4
								C952.7,261.7,952.5,260.8,951.9,261z"/>
							<path class="st5" d="M946.9,255.8c-0.8-0.2-2.2,0-3,0.3c-0.7,0.2-0.9,0.5-1,1.3c-0.3,1.4-0.4,3.1-0.5,4.6
								c-0.1,1.7-0.4,3.3,0,5c0,0.1,0.2,0.1,0.3,0c0.8-2.4,0.7-5.2,1.1-7.7c0.2-1-0.1-1.8,0.8-2.1c0.7-0.3,1.6-0.3,2.3-0.5
								C947.3,256.5,947.3,255.9,946.9,255.8z"/>
							<path class="st5" d="M943.3,251c-1.5-0.2-3.3-0.2-3.4,1.6c-0.3,2.8-0.5,6.2,0,9c0,0.1,0.1,0.1,0.1,0c0.5-2,0.4-4.2,0.5-6.3
								c0-0.7-0.2-1.8,0.1-2.4c0.4-1,1.8-0.9,2.6-0.9C943.9,252.1,943.9,251.1,943.3,251z"/>
							<path class="st5" d="M941,244.5c-0.6-0.3-1.2-0.3-1.9-0.2c-0.7,0.1-1.4,0.1-1.9,0.5c-0.4,0.3,0.1,0.8,0.5,0.7
								c0.3-0.1,0.9,0,1.2,0c0.5-0.1,0.9-0.1,1.4,0c0.5,0.1,0.9,0.1,0.9-0.5C941.3,244.9,941.2,244.6,941,244.5z"/>
							<path class="st5" d="M940.4,235.5c-0.1-0.2-0.4-0.3-0.7-0.3c-1.1,0.2-2.6-0.1-3.6,0.6c-0.1,0.1-0.1,0.3,0,0.4
								c0.6,0.5,1.7,0.3,2.5,0.3c0.6,0,1.4,0,1.8-0.5c0.1-0.1,0.1-0.3,0-0.4C940.4,235.6,940.4,235.6,940.4,235.5z"/>
							<path class="st5" d="M940.3,228.7c-0.7-0.3-2.9-0.7-3.5,0c-0.2,0.2-0.1,0.4,0.1,0.5c0.9,0.4,2.1,0.2,3,0.6
								C940.6,230.1,941,229,940.3,228.7z"/>
							<path class="st5" d="M937.9,221.9c-0.3,0-0.5,0.5-0.2,0.7c0.5,0.3,0.9,0.3,1.5,0.3c0.6,0,1.1,0.2,1.6,0.3
								c0.3,0,0.5-0.3,0.4-0.5C940.9,221.3,938.8,221.9,937.9,221.9z"/>
							<path class="st5" d="M943.7,215.5c-0.1-0.2-0.2-0.2-0.3-0.3c-0.4-0.3-0.9-0.3-1.3-0.3c-0.2,0-1.4,0.3-1.6,0.2c0,0,0,0,0,0
								c-0.2,0.4,0.2,0.5,0.5,0.5c0.4,0.1,0.8,0,1.3,0.1c0.3,0,0.5,0.1,0.7,0.2c0.4,1.5,0.5,3.1,0.6,4.6c0.1,1.3,0.1,2.6,0.6,3.8
								c0.1,0.2,0.5,0.2,0.5-0.1C944.5,221.3,944.6,218.3,943.7,215.5z"/>
							<path class="st5" d="M949.1,214.6C949.1,214.6,949.1,214.6,949.1,214.6c0-1.6-0.1-3.2-0.5-4.2c0-0.1,0-0.1,0-0.2
								c0-0.2,0-0.5-0.2-0.3c0.3-0.3,0.1-0.8-0.3-0.8c-0.1,0-0.1,0-0.2,0c-0.2,0-0.4,0.1-0.5,0.3c0-0.1-0.1-0.2-0.2-0.2
								c-0.7-0.2-1.4-0.1-2-0.4c0,0,0,0,0,0c-0.1,0.3,0.1,0.5,0.3,0.7c0.2,0.1,0.4,0.1,0.5,0.2c0.3,0.1,0.6,0.2,0.9,0.3
								c0.1,0.1,0.3,0.1,0.3,0l0,0c0.1,1.2,0.3,2.4,0.5,3.6c0,0.2,0.1,0.4,0.1,0.6c0,0.2,0,0.3,0,0.4c0.1,1.3-0.1,2.7,0.2,4
								c0.1,0.5,0.8,0.4,1,0C949.7,217.3,949.3,215.8,949.1,214.6z"/>
							<path class="st5" d="M955.6,209.5c-0.1-1.4-0.1-2.7-0.3-4.1c0.1-0.1,0.1-0.2,0-0.3c0-0.1-0.1-0.1-0.1-0.1c0,0,0-0.1,0-0.1
								c-0.1-0.3-0.3-0.4-0.6-0.4c-0.1,0-0.2,0-0.3,0c0,0,0,0,0,0c-0.5,0-1,0-1.4-0.2c-0.3-0.2-0.6,0.2-0.4,0.5
								c0.4,0.4,1.2,0.6,1.9,0.7c0,0,0,0,0,0c-0.4,1.4-0.4,2.9-0.3,4.3c0,1.1,0,2.3,0.7,3.2c0.2,0.3,0.6,0.3,0.8,0
								C956.2,212.1,955.6,210.4,955.6,209.5z"/>
							<path class="st5" d="M963.1,209.8c0.1-1.9,0.1-3.8-0.2-5.7c-0.1-0.6-1-0.5-1.1,0c-0.1-0.1-0.1-0.1-0.1-0.2c0,0,0-0.1-0.1,0
								c-0.1,0-0.1,0.1-0.2,0.1c-0.1,0-0.1,0.1-0.1,0.2c0.4,0.6,0,2.3,0,3c-0.1,0.9-0.2,1.9-0.1,2.9c0,0.9-0.1,2.3,0.6,3
								c0.2,0.2,0.6,0.3,0.8,0C963.4,212.3,963.1,210.9,963.1,209.8z"/>
							<path class="st5" d="M973.7,204.6c0-0.6-0.8-0.6-0.9,0c-0.1,0.7-0.1,1.4-0.1,2.2c-0.2,1.4-0.3,2.8-0.4,4.2
								c0,0.9-0.4,2,0.3,2.8c0.2,0.2,0.7,0.2,0.8-0.1C974.7,211.1,973.9,207.3,973.7,204.6z"/>
							<path class="st5" d="M986.3,210.3c-0.1-1.5-0.4-2.9-0.4-4.4c0-0.1,0-0.1-0.1-0.1c0-0.1,0-0.2-0.1-0.2c0,0,0,0-0.1,0
								c-0.3-0.3-0.9-0.2-0.9,0.4c0,0.4,0,0.7,0,1.1c-0.2,0.9-0.3,1.9-0.4,2.6c-0.1,0.9-0.4,2.4,0.4,3.1c0.2,0.1,0.4,0.1,0.6,0
								C986.2,212.2,986.3,211.2,986.3,210.3z"/>
						</g>
						<path class="st8" d="M975.5,253.7c-0.4-4.5-1.3-17.9,11.4-27c12.7-9.1,31-9.6,43.2-7.6c0.5-8.5,0.2-9.7,0.2-9.7
							s-8.5-2.9-21.7-1.7s-21.8,3.2-27.6,9.1c-5.8,5.9-11.2,14.2-9.6,24.4C973.2,251.4,975.5,253.7,975.5,253.7z"/>
						<path class="st9" d="M1041.5,298.5C1041.5,298.5,1041.4,298.5,1041.5,298.5c-8-3.2-15.9-6.2-23.8-9.4
							c-7.7-3.1-12.1-4.2-25.2-11.2c-14.4-7.6-23.5-34.2-16.1-52.5c5.5-8.8,12.5-13.9,23.6-16.5c2.1-0.5,8.8-1.1,9.9-1.2
							c5-0.1,9.9,0.3,14.3,0.7c0.6,0-0.5-1-0.7-1c-1.4,0-2.7-0.1-4.1-0.3c-0.3,0-9.9-0.7-20,1c-4.7,0.8-9.7,2.2-14,4.6
							c-5.5,3-10.1,7.6-13.3,11.5c-5.2,6.4-5.3,21.9-1,32.9c2.8,7.2,6,13.4,11.5,18.6c-10.1-4.4-23.2-8.3-31.4-15.8
							c-5.8-5.3-9.2-11.4-10.4-18.4c-1.1-6.6-0.2-16.8,0.3-19.7c0.5-2.9,1.6-5.4,2.8-7.3c1.2-1.9,3.4-4.5,5.6-6.1
							c2.4-1.8,5.2-3.8,8.6-4.2c2.2-0.2,6.4-0.1,6.4-0.2c2.2,0,5,0.2,7.3,0.4c3.7,0.4,25.6,3,31.2,3.1c0.3,0,0.6-0.2,0.4-0.2
							c-6-0.4-18.9-2.1-23.5-2.5c-7.2-0.7-19.5-2.1-24.2-1.3c-4.8,0.8-10.3,4.3-13.1,7.2c-4.2,4.3-5.7,11.1-6.3,16.2
							c-0.6,5.1,0.1,21.5,6.6,30c7.2,9.4,26,16.6,30.4,18.3c4.4,1.7,23.1,10.4,34.3,14.5c9.1,3.3,21.5,8.7,26.5,10.3
							c5,1.5,18.8,6.4,18.8,6.4l6.1-1.1C1059,305.2,1044.2,299.3,1041.5,298.5z"/>
					</g>
					<path class="st8" d="M1016.6,316c-14.9-6.8-29.4-14.3-44.1-21.6c-13.8-6.9-34.3-16.8-36.7-34.1c0-0.2-0.4-0.2-0.4,0
						c-0.1,6.8,2.9,12.5,7.2,17.3c0.2,0.3,0.4,0.5,0.6,0.7c6.3,6.7,15.3,11.7,22.6,15.6c8.7,4.6,17.4,9.2,26.5,13
						c7.9,3.3,15.5,8.4,23.8,10.9C1017.2,318.1,1017.7,316.5,1016.6,316z"/>
				</g>
			</g>
			<path class="st10" d="M1071.2,306.7l1.5-53.5c0-0.4,0.3-0.7,0.7-0.7l22.4-0.8c0.4,0,0.8,0.3,0.8,0.7l0.2,12.9
				c0,0.4,0.3,0.7,0.8,0.7l6.3-0.1c0.4,0,0.7-0.3,0.7-0.8l-0.1-13.6c0-0.4,0.3-0.7,0.7-0.8l0.5,0c-1.3-1.7-3.3-2.9-5.4-3.3
				c-1.4-0.2-5.7-0.3-7.4,1.1c-0.7-1.4-1.7-2.6-2.8-3.3c-2.8-2-6-1-8.5,0.7c-0.9-2.9-4.3-5.2-7.1-5.6c-1.4-0.2-5.2,0.3-6.6,1.8
				c-3.7-4.2-12.4-6-15.5-1.7c-0.3-4.6-4.8-8-9-9c-3.5-0.9-9.1,0.5-11.1,3.9c-2.1-2.3-6-3.5-8.6-3.2c-4.3,0.5-9.2,3.5-9.1,7.9
				c-1.2-2.1-3.8-3.9-5.5-4.3c-2.3-0.6-6.6,1.1-7.4,3.7c-1.7-2.8-4.6-4.2-8.4-4c-2.9,0.2-6.2,2.2-5.9,5.2c-0.4-0.1-0.7-0.2-1-0.4
				c-2.1-0.9-4.2-1.2-6.4-0.3c-2,0.8-3.7,3.1-4.4,5c-0.3,0.8-0.3,1.5-0.2,2.2c-0.1,0.5-0.1,1.1-0.1,1.6c-0.9,9.4,5.4,20.2,12,26
				c10.4,9.1,27,14.2,39.9,18.3c10.3,3.3,19.3,8.7,29.1,11.7c2.9,0.9,6,0,9.1,0.3c2,0.2,3.9,1.2,5.9,1.6L1071.2,306.7z"/>
		</g>
		<g>
			<g>
				<path class="st5" d="M1162.8,303.2c-1.5-0.1-2.9,12.3-3.2,14.5c-0.3,2.2-55.1-0.5-55.1-0.5s0.5-13.1,0.8-23
					c-4.9-8-11.3-3.7-13.8-1.6c-2.5,2-15.3,12.5-16.8,14.9c-1-1-11.4-2.7-16.3-2.2c-16.9,1.5-61.8,19.1-65.5,21
					c-13.9,7.3-67.5,15.7-100,21.1c-27.8,4.6-71.7,17-98.9,14.1c-27.6-2.9-61.1-22.4-72.9-19.3c-6.3,1.6-11.5-2.3-14.7,8.6
					c-1.6,5.7-2.8,17.4-3,31.7c-0.3,28-5.8,129.2-5.8,129.2L711,647.1l92.7,4.2l235.7,8.1c0,0-80.2-112.2-111.2-147.8
					c-29.7-34.2-44.7-70.7-47.8-90.4c-3-19.6-30.6-32.8-30.6-32.8c-0.8-4.7,7.4-11.9,13.1-13.1c5.6-1.2,27.1,14.7,68.1,4.9
					c17.9-4.3,53.5-13.5,87.9-23.8c44.3-13.2,85.3-27,90.8-28.5c18.7-5.1,32.1-9.5,41.6-7.7c3.2,0.6,5.5,1.4,7.3,2.1
					c1.7,0.7,2.8,1.1,5.1,0.9c1.6-0.1,2.1-3.1,2.5-7.4c0.4-4,2.2-12.4,2.2-12.4S1164.3,303.3,1162.8,303.2z"/>
				<path class="st5" d="M899.2,469.9c5.4,0.2,269.9,6.1,269.9,6.1l-0.8-172.7c0,0-1.7,6.5-1.9,10.3c-0.2,2.6,0.1,9.5-3.2,9.7
					c-2.8,0.2-11.9-4.3-18.4-3.6c-12.5,1.3-26.1,5.4-40,9.6c-19.5,5.8-50.8,16.2-72.5,23c-26.6,8.2-61.8,17.6-93.3,25.7
					c-22.5,5.8-36,5.2-51.4,3.4c-11.1-1.3-20-7.1-25-6.1c-9.7,1.9-13.7,12.7-12.5,13.3c7.8,4.1,17,9.7,24.7,19.8
					c6.8,9,6.3,21.6,10.8,32.2C892.9,457.9,897.1,467.7,899.2,469.9z"/>
				<path class="st8" d="M1168.7,303.1c-4.6-0.3-5.5,16.5-6.8,19.4c-4.2-1.4-11.1-3.4-15.8-3.1c-4.8,0.3-17.5,2.5-27.2,5.5
					c-16.6,3.7-33,8.7-48.8,14.6c-7.3,2.7-28.9,9.5-30.9,10.1c-10.1,3.1-20.9,5.8-31.1,8.4c-8.6,2.2-17.1,4.9-25.6,7.5
					c-4,1.2-42.7,12-58.5,14.1c-11.6,1.6-25,3.4-36.7,0.1c-3.1-1.6-7.1-3.1-10.4-4.7c-4.8-2.3-8.4-2.8-13.7-1.3
					c-7.8,2.2-19.7,12.3-11.6,19.4c0.5,1.4,1.4,2.8,2.7,3.9c2.3,2,5.7,3.4,8.4,4.6c2.4,1.1,5.1,1.9,7.7,1.2c0.1,0.2,1.2,3.3,1.4,3.3
					c7.4,1.5,12.7,1.5,19.6,1.5c6.8,0.1,13.5,0.3,20,0c13.1-0.5,25.8-3.3,38.5-6.3c23.9-5.6,46.9-14,70.2-21.5
					c21.7-7,43.1-14.2,64.4-22.2c20.1-7.5,41.4-10.4,61.8-16.8c0.8-0.2,1.6-0.3,2.4-0.4c5-0.8,7.3,0,11.9,1.2c2.4,0.6,6.7,0,7.8-1.3
					C1168.5,338.4,1168.6,304.4,1168.7,303.1z"/>
				<path class="st11" d="M836.1,393.6c-16.2,2.2-96.5-4.7-97.7-0.2c-0.5,1.9,8.9,43.7,21.4,94.9c3.6,14.9,9,30.2,14.3,47
					c19.2,61.2,29.4,118.7,30.3,117.2c0.6-0.9,183.5,6.3,183.5,6.3s-91.1-124.8-101.7-140.5c-14-20.8-17.6-47.9-22.7-71.9
					c-3-14.2-19.3-22.2-26.5-33.8C833.1,406.5,836.1,393.6,836.1,393.6z"/>
				<path class="st12" d="M1104.8,313l55-0.3c0,0,1,11-1.5,9.5c-2.6-1.6-8-2.7-11.5-2.8c-1.6-0.1-12.7,1.5-25.4,4.9
					c-17.8,4.6-36.7,11.6-36.7,11.6s13.2-16,15.3-16.7C1104.6,317.5,1104.8,313,1104.8,313z"/>
				<g>
					<path class="st8" d="M740.4,584.4c-3.7-21.4-7.5-42.9-13.1-63.8c-5.1-19-9.8-38.5-11.7-58.1c-1-10.2-1.3-20.2-4.3-30.1
						c-3.2-10.4-9.8-18.8-8.5-30c0.1-0.6-0.9-0.8-1.1-0.2c-1,3.4-2.7,6.3-2.4,9.8c0.4,4.7,5.7,11.4,7.3,16.3
						c3.2,10.2,4.2,19.6,4.8,30.2c1.2,20.2,6.6,41,11.8,60.4c5.8,21.2,9.7,43.3,13.2,64.9c0.1,0.6,0.2,1.2,0.3,1.7
						c0,4.5,1.1,9.1,1.5,13.5c0.5,6.4,1.2,12.6,2.4,18.9c2.6,13.2,4,26.5,8,39.3c0.4,1.3,2,1.9,3.1,0.9c0.3-0.3,0.6-0.7,0.8-1.2
						c1.3,0.3,3-0.7,2.8-2.4C752.2,631.1,744.4,607.9,740.4,584.4z"/>
					<g>
						<path class="st13" d="M1162.5,303c-0.7,1.5-1.9,5.5-2.1,7.9c-0.5,5.7-0.4,11.5-2.8,10.1c-3.6-2.2-10.5-2.6-14.6-2
							c-7,1-12,1.8-18.7,3.3c-19.5,4.4-39,11.2-59,17.1c-12.3,3.7-49.5,14.7-55.6,16.7c-9.1,3-46.1,12.8-55.3,15
							c-3.6,0.9-12.5,3.2-16.2,4.1c-14.2,3.6-30.6,5.3-37.8,5.4c-4.2,0.1-7.2,0.3-12.1-1.2c-2.1-0.6-3.4-1-7-2.6
							c-2.1-1-6.3-4.2-10.7-5.2c-5.6-1.2-18.8-1.1-27.9,8.7c-2.7,2.9-7.5,5.9-5.6,8.4c2.2,3,8.7,6.1,11.2,8.4
							c19.1,17.3,17.6,26.5,19.4,37c2.8,16.4,9.5,32,21.9,50.9c8.6,13.1,48.2,66.7,63.5,86.5c22.7,29.3,38.3,59.5,58.8,90.4
							c0.7-0.4,27.4,2.9,26.5,0.8c-6-13.2-15.7-23.5-21.5-32.7c-10.9-17.2-29.2-41.9-36.5-52.4c-8.2-11.8-19.9-25.8-22.8-29.9
							c-3.2-4.5-14.3-15.9-20.1-22.5c-5.8-6.7-15.3-19.9-23.3-31.9c-3.8-5.6-9.8-15-13.4-20.8c-3.8-5.9-12.8-24-16.9-39.5
							c-1.9-7.3-3.3-16.9-7.3-23.4c-3.5-5.6-9.2-10.5-14.5-14.3c-1.9-1.4-12.6-7-12.3-8.8c0.3-1.9,6.1-6.9,8.6-8.9s5.6-4.3,10.7-4.1
							c5.3,0.2,7.6,2.1,11.4,3.5c1.5,0.9,4.2,1.8,6.1,2.6c6.1,2.3,11.2,2.6,17.8,2.5c10.9-0.2,21.1-1.5,31.5-3.7
							c12.7-2.7,24.1-5,36.6-8.4c6.5-1.8,48.8-14,62.7-18.3c25.5-7.7,50.9-15.7,76.4-23.4c11.9-3.6,28.5-9,40.9-7.7
							c5.2,0.5,10,5.8,11.8,3c1-1.6,1-5.2,1.6-8.6c0.9-5.6,3-11.6,3-11.6S1164.5,303.1,1162.5,303z"/>
						<path class="st13" d="M1105.7,294.9c-0.5-2.2-1.4-3.4-3.2-4.5c-2.2-1.4-5.2-1.6-7.6-0.8c-3.7,1.1-7,4.4-9.6,7.1
							c-3.8,3.8-5.8,5.9-9.3,8.8c-1.6,1.3-4.1,1.1-6.8,0.2c-3.1-1-11.9-1-17.2,0.1c-4.1,0.8-8.1,1.8-12.1,2.7c-2,0.5-4.1,1.1-6,1.8
							c-7.7,2.4-15.3,5.3-22.9,8.4c-9.7,3.9-19.8,7.9-29.8,10.8c-5.6,1.7-25.4,7.1-31.2,8.1c-14.4,2.3-27.2,4.2-36.6,5.7
							c-15.9,2.3-20.8,3.6-32.6,6.1c-12,2.6-48.5,9.2-58.6,9.9c-8.1,0.6-12.3,2.1-23.2,1.9c-10.9-0.3-18.6-2-27.2-4.9
							c-9.7-3.3-25.1-9.7-30.3-11.6c-5.2-1.9-14.6-5.8-22.5-4.4c-3.7,0.6-12.8,4.3-12.3,10.4c0.5,5,6.2,11.1,10.4,23.8
							c6.2,30.2,10.8,58,16,87.5c3.2,18,6.8,35.9,11.2,53.5c6.1,24.3,12.2,45.9,18.8,70c6.1,21.9,8.5,44.7,11.9,67.2
							c0.2,1.5,30.9,0.6,30.9,0.6s-13-55.6-13.9-60c-3.9-19.2-18.6-62.8-24.3-81.9c-4.8-16.3-14-47.7-17-62.2
							c-4.2-20-9.3-40.6-12.6-60.7c-1.4-8.6-6.1-23.7-12.5-33.3c-2.4-3.6-7.2-8.1-6.9-9.9c0.3-1.8,3.4-3.1,7.3-2.9
							c5,0.2,8.6,2,8.7,1.8c14,4.7,27.7,10.8,41.9,14.9c7.6,2.2,15.3,3.3,23.1,3.6c7.7,0.3,16.4-0.3,25.2-1.2
							c8.8-0.9,19.3-2.2,28.2-4.4c14.2-3.5,52.3-10.8,57.5-11.6c9.2-1.4,36.7-5.8,41.2-6.6c10.7-1.6,21.3-4.1,31.4-7.6
							c5.5-1.6,9.8-3.6,16.1-6c6.3-2.4,23.6-9.2,34.4-13.4c8-2.5,19.8-5.8,24.5-5.9c4.7-0.1,9.2,0.3,14.5,2.3
							c2.3,0.9,3.3,1.7,6.1,1.5c3.3-0.2,3.3-2.4,5.4-4.6c3-3,5.9-6.3,8.4-9.5c1.6-2,4.7-4.8,7.9-4.5
							C1104.1,291.5,1104.7,293.7,1105.7,294.9z"/>
					</g>
					<g>
						<g>
							<path class="st14" d="M740.1,551.9c-0.1,0-0.2,0-0.3-0.1c-0.4-0.1-0.8,0.1-0.9,0.5c-0.5,1.8-0.7,4.1-0.7,5.9
								c0,2.4-0.4,4.9,0.3,7.2c0.1,0.2,0.4,0.2,0.5,0c0.7-2,0.6-4.3,0.7-6.4c0-1.3,0.1-2.4,0.4-3.7c0,0,0.3-2.4,0.1-2.3
								C740.6,552.7,740.6,552,740.1,551.9z"/>
							<path class="st14" d="M731.4,513.5c-0.5,2-0.9,3.8-0.9,5.9c0,1-0.2,2-0.3,3c-0.1,1.1,0.1,2.2,0,3.4c0,0.1,0.1,0.1,0.2,0.1
								c1-1.4,1.1-3.3,1.4-4.9c0.4-2.4,0.5-4.6,1-7c0,0,0,0,0,0C733.1,513.2,731.7,512.6,731.4,513.5z"/>
							<path class="st14" d="M725.9,480.3c0-0.9-1.5-1.1-1.5-0.1c-0.1,3.5-1.1,7.7-0.3,11.2c0.1,0.3,0.5,0.3,0.6,0
								C725.9,488,725.8,483.8,725.9,480.3L725.9,480.3z"/>
							<path class="st14" d="M721.7,456.7c-0.1-0.6-1-0.6-1.2,0c-0.6,2.4-1,5-0.5,7.5c0,0.1,0.2,0.1,0.3,0c0.4-1.2,0.8-2.7,1-3.9
								C721.4,459.1,721.9,457.9,721.7,456.7z"/>
							<path class="st14" d="M716.7,432c-0.8,1-0.7,2.5-0.6,3.7c0.1,1.7,0.2,3.5,0.2,5.2c0,0.1,0.1,0.1,0.1,0
								c0.3-2.9,0.5-5.8,0.9-8.7C717.5,431.8,716.9,431.8,716.7,432z"/>
							<path class="st14" d="M712.7,414.8c0-0.3-0.5-0.3-0.6,0c-0.3,1.6-0.4,3.3-0.6,4.9c-0.2,1.7-0.3,3.6,0,5.4
								c0,0.1,0.3,0.2,0.3,0c0.4-1.9,0.2-3.9,0.6-5.8C712.7,417.7,712.8,416.3,712.7,414.8z"/>
							<path class="st14" d="M713.6,369.4c0-0.4-0.6-0.5-0.7,0c-1,9.3-2.1,19-1.4,28.3c0,0.1,0.1,0.1,0.1,0
								C712.9,388.5,714,378.6,713.6,369.4z"/>
							<path class="st14" d="M709.3,364.7c0-0.2-0.2-0.2-0.2,0c-0.1,4.2-0.4,8.4-0.6,12.6c-0.2,3.3-0.8,6.8-0.5,10.1
								c0,0.1,0.2,0.1,0.2,0C709.3,379.9,709.1,372.3,709.3,364.7z"/>
							<path class="st14" d="M718.6,381.1c0-0.6-0.9-0.6-0.9,0c-0.2,6.2,0.3,12.4-0.6,18.6c-0.6,4.2-1.4,8.6-1.2,12.9
								c0,0.1,0.2,0.2,0.2,0c0.6-4.7,1.6-9.3,2.1-14C718.8,392.7,718.3,386.9,718.6,381.1z"/>
							<path class="st14" d="M721.8,401.2c0-0.2-0.3-0.2-0.3,0c-0.8,5.2-0.5,10.5-0.8,15.8c-0.3,4.3-1.3,8.5-1.2,12.9
								c0,0.2,0.3,0.2,0.3,0C721.2,420.3,722.5,410.9,721.8,401.2z"/>
							<path class="st14" d="M726.3,431.8c0-0.7-1-0.7-1.1,0c-0.4,8.1-1.8,16-2.1,24.1c0,0.1,0.1,0.1,0.1,0
								c0.4-3.9,1.6-8.2,2.3-12.1C726.3,439.9,726.2,435.8,726.3,431.8z"/>
							<path class="st14" d="M737.4,486.1c0-0.6-0.9-0.6-0.9,0c-0.6,6.5-0.3,13.2-0.5,19.8c-0.2,5.4-1.4,10.5-0.7,15.9
								c0,0.1,0.1,0.1,0.1,0C737.6,510,737,498.1,737.4,486.1z"/>
							<path class="st14" d="M761.1,643.9c0-0.3-0.2-0.6-0.6-0.6c-1.8,0.1-1.3,3.8-1,5c0.1,0.5,0.9,0.6,1,0c0.1-0.7,0.1-1.5,0.1-2.3
								c0-0.4,0-0.8,0.2-1.2C760.9,644.5,761.2,644.3,761.1,643.9z"/>
							<path class="st14" d="M749.5,597.2c0.1-0.1,0-0.3,0-0.4c-0.1-0.3-0.3-0.4-0.6-0.4c-0.2,0-0.5,0.1-0.6,0.3
								c-0.1,0.1-0.1,0.2-0.1,0.4c-0.2,4.1-0.5,8.4-0.1,12.4c0,0.3,0.6,0.4,0.7,0C749.4,605.6,749.4,601.3,749.5,597.2z"/>
							<path class="st14" d="M720.7,351.3c-1.6-0.9-3.3-1.4-5.1-1.2c-2,0.2-5.4,1.6-5.8,3.9c0,0.1,0.1,0.1,0.1,0.1
								c1.5-0.9,3.8-1.9,5.5-2.3c1.3-0.2,2.6,0.1,3.8,0.5c1,0.4,2.4,0.6,3.3,1.3c0.3,0.2,0.7-0.1,0.6-0.4
								C722.8,352.1,721.7,351.8,720.7,351.3z"/>
							<path class="st14" d="M726.8,361.1c-2.4-0.8-4.4-2-7-2c-2.1,0-6.7,2.7-6,3.1c1.4,0.7,3.1,0.1,4.6,0.1c2.6,0,5.4-0.3,8,0.3
								c0,0,0.1,0,0.1,0c0,0,0.1,0,0.1,0l0,0C727.4,362.5,727.6,361.4,726.8,361.1z"/>
							<path class="st14" d="M735.3,375.5c-0.1-0.3-0.2-0.8-0.5-0.9c-0.2-0.1-4.3-2.6-9-2.6c-1.9,0-4.8,0.7-6.5,1.4
								c-1.1,0.5-2.8,1.6-2.3,3c0.3,0.8,0.8,0.9,1.7,0.9c0.3,0,0.3-0.4,0.1-0.6c0.2,0,0.4,0,0.6-0.1c1.1-0.6,7.6-0.7,9.2-0.5
								c2.1,0.2,6,1.2,6.5,1C735.6,376.8,735.4,375.6,735.3,375.5z"/>
							<path class="st14" d="M736.5,392.1c-2-1.2-4.4-1.7-6.8-1.6c-0.1-0.1-0.1-0.2-0.2-0.2c-1.9-0.1-3.7,1-5.4,1.7
								c-0.8,0.3-1.6,0.6-2.1,1.1c-0.4,0.1-0.8,0.3-1,0.5c-0.1,0-0.1,0-0.1,0.1c-0.2,0.2-0.4,0.5-0.3,0.9c0.2,1.6,2.3,1.5,3.4,0.8
								c0.6-0.1,1.3-0.4,1.9-0.7c1.8-0.3,3.6-0.9,5.5-0.9c2.4,0,4.2,2.6,6.6,2.5C741.4,396.1,737.6,392.7,736.5,392.1z"/>
							<path class="st14" d="M744.7,417.7c0.1-0.4-0.1-0.8-0.5-1.2c0-0.1-0.1-0.1-0.1-0.2c-0.1-0.1-0.2-0.1-0.3-0.1
								c-1.6-1.1-4.9-1.7-7.2-2c-0.4-0.2-0.9-0.2-1.5-0.2c-0.3,0-0.5,0-0.7,0c-1.6,0-6.1,0.7-8.2,2.4c-0.5,0.1-1.1,0.1-1.5,0.5
								c-0.6,0.6-0.5,1.5-0.3,2.2c-0.1,0.3,0,0.6,0.2,0.8c0,0,0,0.1,0,0.1c0,0.1,0.1,0.2,0.2,0.2c0.4,0.2,0.9,0.3,1.3,0.3
								c2.5-0.4,4.7-2.1,7.1-2.8c3-0.8,6.7-0.2,9.4,1.5c0.2,0.1,0.3,0.1,0.6,0.1c0.4,0.3,0.7,0.6,1.1,0.1
								C744.9,419,744.9,418.3,744.7,417.7z"/>
							<path class="st14" d="M750.8,446.3c-0.3-1.5-0.8-5.1-2.5-5.7c-0.1,0-0.2,0-0.3,0.1c-0.5-0.2-1-0.5-1.8-0.7
								c-2-0.7-4.1-1.3-6.2-1.7c0-0.2-0.1-0.3-0.3-0.3c-0.2,0-0.5,0-0.9,0c-0.1,0-0.1,0-0.2,0c-0.2,0-0.3,0-0.5,0.1
								c-3.5,0.3-9.5,1.3-9,5c0,0.4,0.2,1.1,0.3,1.8c0,0.2,0,0.5,0,0.7c0,0.5,0.2,1,0.3,1.4c-0.2,1.4-0.5,2.8-0.5,4.2
								c0,1.5-0.1,3.1,0,4.6c-0.2,10.1-1.5,20.3-1.1,30.5c0,0.4,0.6,0.4,0.6,0c0.6-5.8,0.7-11.6,0.9-17.4c0.2-4.7,0.8-9.4,0.8-14.1
								c0,0,0,0,0-0.1c0.2-0.2,0.4-0.3,0.6-0.4c0.5-0.2,0.9-0.3,1.4-0.6c0.8-0.4,1.8-0.8,2.3-1.6c0.2-0.3-0.2-0.6-0.4-0.5
								c-1.1,0.5-2.3,1.2-3.4,1.7c-0.1,0.1-0.3,0.2-0.4,0.3c0.2-1.1,0.4-2.2,0.5-3.3c0-0.3,0.1-0.5,0.1-0.8c2.5-2.1,7.4-2,10.2-1.9
								c0.8,0,1.7,0.1,2.5,0.1c1.7,0.7,3.6,1.4,4.8,0.8c0.2-0.1,0.3-0.2,0.4-0.3c0.4,0,0.7,0.1,1.1-0.1
								C751.2,447.7,751.1,447.5,750.8,446.3z"/>
							<path class="st14" d="M758.5,478.4c-0.4-1.7-0.6-2.4-2.2-3.2c-0.8-1-2.2-1.7-3.4-2.2c-2.2-0.8-4.7-1.7-7.1-1.4c0,0,0,0,0,0
								c-1.5,0.1-2.9,0.5-4.3,1c-1.1,0.4-4.1,1.3-4.9,2.3c-1.2,1.4-1,5.7-0.1,7.2c0.1,0.2,0.4,0.4,0.6,0.4c1.8,0,3.5-1,5.4-1.2
								c3.8-0.5,7.5-0.6,11.3,0c0.6,0.1,1.1,0.1,1.5,0c1,0.2,2.4,0.5,3.1-0.2C759,480.5,758.7,479.2,758.5,478.4z"/>
							<path class="st14" d="M770.1,518.2c-0.6-1.4-1.1-2.8-1.4-4.3c-0.2-0.8,0-1.9-0.6-2.5c-0.5-0.4-1.2-0.4-1.8-0.4
								c-0.7-0.1-1.3-0.3-1.9-0.4c-0.3-0.1-0.7-0.3-1.1-0.4c-2.7-1-7.1-3-9.9-1.5c-2.9,0.4-6.2,1.8-7.9,3.9
								c-0.2,0.2-0.3,0.5-0.5,0.8c0,0,0,0-0.1,0c-0.9,0.8-0.8,1.7-0.5,2.7c0.6,1.9,1,3.8,1.7,5.7c0,0.5,0,1.1,0,1.7
								c0,0-0.1,0.1-0.1,0.1c-0.4,5.8-1.1,11.6-1.3,17.4c-0.2,4.9-1.3,10-0.3,14.8c0,0.1,0.3,0.2,0.3,0c2.3-9.8,2.1-20.9,2.1-31
								c0.2-0.9,0.2-1.8,0.3-2.7c2.4,0,4.4-1.5,6.8-1.8c3.3-0.5,6.8-0.2,10-0.1c0.4,0,0.7,0,0.9,0c0.9,0.3,1.7,0.5,2.6,0.7
								c0.6,0.1,1.6,0.6,2.3,0.4C771.5,521.1,770.5,519.1,770.1,518.2z"/>
							<path class="st14" d="M780.3,552.4c-2.3-2-6.5-3.6-10.1-3.8c-2.4-0.6-4.7,0.4-7,1.3c-2.3,0.9-5.1,1.5-7.2,2.9
								c-0.1-0.1-0.2-0.1-0.3-0.1c-1.4,0.2-1.9,1.8-1.3,3c0,0,0,0,0,0c0,0.1,0,0.2,0,0.2c0.2,0.9,1,3.5,1.8,5
								c-0.3,6-0.3,11.9-0.9,17.9c-0.5,4.7-1,9.5-1.1,14.2c-0.3,2.6-1.4,7.4-0.2,9.4c3.3-4.4,3.7-9.2,4.3-14.4
								c0.7-6.1,2.3-12.5,1.1-18.5c-0.1-0.6-0.3-1.7-0.9-2.2c0.1-0.5-0.6-0.9-1.1-0.7c0.1-1.4,0-2.8,0-4.2c0.1,0,0.2,0.1,0.2,0.1
								c0.7-0.1,1.4-0.3,2.1-0.5c1.7-0.5,3.5-1.7,4.7-1.9c4.1-1,7.4-0.7,10.9,0c1.3,0.4,2.5,1,3.9,0.9c0.1,0,0.2-0.1,0.2-0.1
								c0.6,0.1,1.3,0.3,2,0.4c0.2,0,1.8,0.1,1.8-0.1C783,558.7,782.3,554.2,780.3,552.4z"/>
							<path class="st14" d="M804.4,650.4c0.1-1.3-0.5-2.4-1.7-2.7c-0.2-0.2-0.3-0.3-0.5-0.5c-3.3-3.4-8.9-5-13.3-4.2
								c-0.4,0.1-0.7,0.2-1.1,0.3c-0.6,0-1.1,0.1-1.6,0.2c-2.5,0.5-9.1,2.5-11,5.2c-0.2,0.2-0.3,0.4-0.4,0.7c0,0.1,0,0.1,0,0.2
								c0,0.2-0.1,0.3-0.1,0.5c-0.2,0.6,0.2,1.2,0.9,1.3c5.1,0.6,10.2,1,15.3,0.8c3.3-0.1,8.2,0.3,11.8-0.5c0.4-0.1,0.8-0.2,1.2-0.3
								c0.2,0,0.3-0.2,0.4-0.4c0-0.1,0-0.1,0-0.2C804.4,650.8,804.5,650.6,804.4,650.4z"/>
							<path class="st14" d="M793.9,601.3c-0.1-0.9,0.2-2.3-0.1-3.2c0-0.2,0-0.3-0.2-0.5c0,0-0.1,0-0.1-0.1c-0.8-1-2.2-1.5-3.5-1.8
								c-1.8-0.7-3.7-1.4-5.4-1.9c-3.2-1-6.2-1.1-9.4-0.1c-2.4,0.8-7,1.7-8.7,3.7c-1.4,1.7-0.6,2.5,0.1,4.5c0.1,0.7,0.1,1.3,0.2,2
								c-0.1,1.4-0.5,3,0.3,4.1c0,0,0,0,0,0c0,1.3,0,2.7,0.1,4.1c0.1,2.5,0.1,5.1,0.3,7.7c0,0,0,0.1,0,0.1c0.2,5.1,0.2,10.2,0,15.3
								c-0.1,2.1-1.4,13.9,0.3,13.8c-0.2-1.2,0.1-2.5,0.3-3.8c0,0.1,0,0.3,0,0.4c0,1.3-0.7,3.7,1.2,3.4c0.3-1.3,1.9-15,1.3-15.1
								c0.3,0,0.5-0.1,0.5-0.4c-0.3-3.9-1.5-7.8-1.9-11.7c0-0.6-0.1-1.3-0.1-1.9c0-0.3-0.2-0.5-0.4-0.6c0-3-0.1-6-0.4-8.9
								c0-0.7,0-1.4,0.1-2.2c5-1.9,8.4-4.5,14.2-4.2c3.9,0.2,7.5,1.6,11.4,2.1c0.5,0.1,0.8-0.4,0.9-0.8
								C794.7,604,794.1,602.9,793.9,601.3z"/>
							<g>
								<path class="st14" d="M738.8,455.6c-1.8,0.8-3.6,1.4-5.4,2.3c-0.6,0.3-2.6,0.7-2.6,1.6c0,0,0.1,0.1,0.1,0
									c0.1-0.1,2.1-0.6,1.9-0.5c0.8-0.3,1.5-0.7,2.3-1c1.4-0.5,2.9-0.9,4-2C739.3,455.8,739,455.5,738.8,455.6z"/>
								<path class="st14" d="M740.7,464.4c-1,0.1-1.9,0.6-2.8,0.9c-0.8,0.3-1.6,0.6-2.4,1c-1.5,0.7-2.2,1.4-1.9,2.9
									c0,0-0.1,0-0.1,0c-0.1,0.3-0.1,0.3,0,0.6c0.1,0.1,0.3,0.1,0.4,0c0.3-0.8,0.4-1.7,1.2-2.2c0.6-0.4,1.4-0.5,2.1-0.8
									c1.2-0.5,2.7-0.8,3.7-1.7C741.1,464.9,741,464.4,740.7,464.4z"/>
								<path class="st14" d="M740.5,490.9c-0.2,0.2-0.7,0.3-1,0.4c-0.3,0.2-0.7,0.5-1,0.8c-0.5,0.6-0.6,1.3-0.5,2.1
									c0,0.3,0.4,0.3,0.5,0c0.3-1.2,0.7-1.8,1.8-2.3c0.4-0.2,0.6-0.3,0.7-0.8C741.1,490.9,740.7,490.8,740.5,490.9z"/>
								<path class="st14" d="M745.6,499.4c-0.5,0.3-1.2,0.3-1.7,0.5c-0.7,0.3-1.5,0.7-2.2,1.1c-0.6,0.4-1.5,1.3-1.2,2.1
									c0.1,0.2,0.4,0.1,0.4,0c0.3-1.2,1.9-1.7,2.8-2.1c0.8-0.4,1.8-0.3,2.3-1.1C746.3,499.6,745.9,499.3,745.6,499.4z"/>
								<path class="st14" d="M753.9,528.1c-0.8-0.1-1.4,0.3-2.1,0.7c-0.6,0.4-1.3,0.7-1.9,1.1c-1.2,0.8-1.2,2.2-1,3.5
									c0.1,0.3,0.6,0.3,0.6,0c0.1-0.5,0.1-0.9,0.2-1.4c0.1-0.9,0.6-1.2,1.3-1.6c1-0.5,1.8-1.1,2.9-1.5
									C754.5,528.8,754.4,528.1,753.9,528.1z"/>
								<path class="st14" d="M756.9,539.5c-0.7-0.2-1.1,0-1.8,0.2c-0.8,0.2-1.6,0.4-2.4,0.7c-0.7,0.3-1.4,1-1.1,1.8
									c0,0.1,0.2,0.1,0.2,0c0.6-1,1.3-1,2.3-1.3c0.9-0.3,1.8-0.6,2.6-0.9C757.1,540.1,757.2,539.6,756.9,539.5z"/>
								<path class="st14" d="M775.7,574.5c-0.8-0.2-1.5,0-2.3,0.3c-0.9,0.3-1.8,0.6-2.7,0.8c-0.2,0.1-0.3,0.4,0,0.5
									c0.8,0.2,1.5,0,2.3-0.2c0.9-0.3,1.8-0.5,2.7-0.7C776,575,776,574.6,775.7,574.5z"/>
								<path class="st14" d="M771.5,589.3c-0.6-0.2-1-0.1-1.6,0.1c-0.9,0.3-1.8,0.5-2.7,0.8c-1.5,0.3-2.9,0.9-4,1.9
									c0,0,0,0.1,0,0.1c1.4-0.5,3-0.9,4.4-1.1c1.4-0.2,2.6-0.7,4-1.2C771.8,589.8,771.7,589.4,771.5,589.3z"/>
								<path class="st14" d="M785.5,627.3c-0.5,0-0.7,0.1-1.1,0.4c-0.7,0.3-1.4,0.6-2.1,0.9c-0.7,0.3-1.5,0.4-2.1,0.8
									c-0.7,0.4-1.1,1.1-1.7,1.5c-0.1,0,0,0.1,0.1,0.1c0.5-0.3,1-0.7,1.5-0.9c0.7-0.3,1.5-0.3,2.2-0.5c0.6-0.2,1.3-0.4,1.9-0.6
									c0.6-0.2,1-0.7,1.6-0.9C786,628,786,627.3,785.5,627.3z"/>
							</g>
						</g>
						<g>
							<path class="st14" d="M737.8,344.3c-0.6-1.2-2.7-2.3-4.2-1.6c-0.6,0.3-0.9,0.7-1.1,1.3c0,0,0,0.1,0,0.1
								c-0.2,0.5-0.2,1-0.2,1.6c-0.5,2.5,0.1,7.5,0.4,10.4c-0.1,0.8-0.1,1.7,0.1,2.4c-0.1,2.8-0.2,5.6-0.3,8.3
								c0,0.3-0.1,0.7-0.1,1.1c0.4,1.5,1.7,4.7,2,5.5c0.6,0.1,1.2,0,1.9-0.3c1.3-0.8,0.9-1.8,1.1-3.2c0.5-4.6,0.8-9.2,1-13.8
								C738.5,353.2,739.3,347.2,737.8,344.3z"/>
							<path class="st14" d="M761,352.3c-0.2-0.4-5.7-3-7.1-2.7c-0.5,0.1-1.5,0.9-1.4,1.3c0.1,0.2,0.6,0.6,0.9,0.6
								c0.2,3.1-0.5,6.3-0.6,9.4c-0.1,2.3-0.5,5.2,0.2,7.5c1.1,3.4,4.1,3.8,4.9,0.2c0.7-3.2,0.8-6.8,1-10c0.1-1.3,0.5-3.4,0.4-5.2
								C760.2,353,761.4,353.1,761,352.3z"/>
							<path class="st14" d="M778.8,358.5c-1-0.1-6.1-2-6.1-1.7c-0.4,4.5-0.7,9.8-0.8,14.3c0,2.4-0.5,5.7,0.3,8
								c0.5,1.6,1.7,3.3,3.5,2.2c3.2-1.9,2.2-10,2.2-12.5c0-3.3-0.1-5.9,0.7-8.9C778.7,359.4,778.8,358.9,778.8,358.5z"/>
							<path class="st14" d="M799.1,361.2c-1.6-0.2-8.2-0.8-9.1-0.6c-1.6,0.3-0.3,2-0.3,3.3c0,0.1,0,0.1,0.1,0.2
								c0,1.7-0.1,3.6-0.1,3.8c0,2.1,0,4.3,0,6.4c0,2-0.1,8.1,3.2,8c3.3-0.1,2.2-6.2,2.3-8.2c0.1-2-0.7-8.5,0.7-10.1
								c0.9-1.1,2.4-0.8,3.3-2.3C799.3,361.5,799.4,361.2,799.1,361.2z"/>
							<path class="st14" d="M817.7,372.7c0.2-1.5-0.2-3.3-0.4-4.7c-0.2-1.6-0.2-6.8-1.8-7.7c-1.4-0.7-4.7,0.3-6.2,0.6
								c-0.2,0-0.3,0.4-0.2,0.5c0,0,0,0,0,0c0.1,0.5,0.1,1.1,0.2,1.6c0,1.2,0.3,2.4,0.6,3.6c0.1,1.8,0.4,3.6,0.5,5.3
								c0.2,3.1-0.2,8.3,1.6,10.9c0.6,0.9,1.6,1.6,2.8,1c1-0.5,1.2-1.9,1.1-3.3c0.2-0.6,0-1.5,0.1-2.2c0.1-1.5,0.4-2.5,0.9-3.9
								C817.2,373.7,817.5,373.8,817.7,372.7z"/>
							<path class="st14" d="M844.7,366.9c0.2-3.1-0.2-6.9-1.3-9.5c-0.3-0.7-0.3-0.8-1.1-0.9c-0.7-0.1-2.7,0.4-3.4,0.5
								c-0.9,0.1-1.9,0.3-2.8,0.6c0,0,0,0.1-0.1,0.1c-0.1,0-0.2,0-0.2,0.2c0,0,0,0,0,0.1c0,0,0,0,0,0c-0.1-0.2-0.4,0-0.3,0.2
								c0,0,0,0.1,0.1,0.1c0,0,0,0,0.1,0c-0.8,0.6,1.2,7.2,1.3,8.2c0.2,1.5,0.4,3.1,0.6,4.7c0,0.3,0.1,0.7,0.1,1
								c0.2,2.2-0.1,6.7,2.6,7.2c0.2,0,0.4,0,0.5-0.2c0.7-1,0.6-1.8,0.5-3.1c-0.1-2-1.3-4.7,0.8-6.2c0,0,0.2-0.1,0.3-0.1
								c0.6,0.1,1.1,0.1,1.6-0.2c0.1,0,0.3-0.1,0.3-0.2c0,0,0-0.1,0-0.1C844.8,368.5,844.8,367.6,844.7,366.9z"/>
							<path class="st14" d="M871,353.6c-0.1-0.7-0.4-1.5-0.9-1.7c-0.4-0.2-0.9,0.1-1.3,0.1c-0.6,0.1-1.2,0.1-1.7,0.1
								c-1.1,0.1-2,0.4-3,0.6c-0.2,0-0.2,0.2-0.2,0.3c-0.1,0.1-0.1,0.2,0,0.3c0.5,0.9,0.9,1.9,1.2,2.8c0.1,3,1.2,6.2,1.5,9
								c0.1,1.2,0,5.6,1.7,6.1c2.2,0.7,1.3-5.2,0.6-7.8c0.7-1.9,3.3-0.7,3.4-3.1c0,0,0-0.1,0-0.1C872.4,358.6,871.5,355.3,871,353.6
								z"/>
							<path class="st14" d="M895.8,356.7c-0.1-0.8-0.3-1.7-0.5-2.5c0-0.6-0.1-1.3-0.2-1.9c-0.2-1.5-0.4-3.5-1.4-4.7
								c-0.6-0.7-1.2-0.6-2.1-0.4c-1.4,0.2-2.8,0.7-4.2,1c-0.2,0-0.2,0.2-0.2,0.3c-0.1,0-0.2,0.2-0.1,0.3c0.3,0.8,0.7,1.6,1,2.3
								c0.2,1.2,0.8,2.5,0.9,3.7c0.2,1.9,0.2,3.8,0.5,5.8c0.2,1.3,0.2,4.6,2,4.6c0.1,0,0.3-0.1,0.4-0.2c0.7-1.2,0.6-2.9,0.5-4.4
								c1.1-0.4,2.1-0.7,2.8-1.3c0.1,0,0.2-0.1,0.2-0.1c0.2-0.1,0.2-0.2,0.1-0.4C895.7,358.3,895.8,357.6,895.8,356.7z"/>
							<path class="st14" d="M949.8,342.9c-0.2-0.9-0.3-1.8-0.5-2.6c-0.2-0.6-0.2-1.7-0.6-2.2c-0.6-0.7-1.7-0.3-2.4-0.1
								c-1.2,0.2-2.3,0.4-3.5,0.8c0,0,0,0,0,0c0,0-0.1,0-0.1,0c0,0-0.1,0-0.1,0.1c-0.1,0-0.1,0-0.1,0.1c-0.2,0.5,0.2,1.5,0.3,2.1
								c0.1,0.4,0.2,0.9,0.3,1.3c-0.2,1.5,0.2,3.4,0.3,4.6c0.1,1.7,0.1,3.4,0.3,5c0,0.4,0.1,1.7,0.7,2c1,0.6,1.5-0.7,1.7-1.5
								c0.2-1.1,0.2-2.3,0.4-3.4c0.2-1.2,0-1.3,1.3-1.7c0.2-0.1,1.8-0.5,1.9-0.5c0.1,0,0.2-0.1,0.2-0.2c0,0,0.1,0,0.1-0.1
								C950.4,345.5,950,344,949.8,342.9z"/>
							<path class="st14" d="M973.7,344.8c0-1-0.6-2.1-0.8-3.1c-0.1-0.8-0.2-1.6-0.3-2.4c0.1-0.9-0.1-2-0.3-2.8
								c-0.2-1-0.6-2.6-1.4-3.3c-0.6-0.5-1.4-0.3-2.1-0.1c-0.6,0.2-1.3,0.3-1.9,0.5c-0.1,0-0.3,0.1-0.4,0.1c-0.5,0.1-1,0.3-1.5,0.4
								c-0.1,0-0.1,0.1-0.1,0.1c0,0-0.1,0-0.1,0.1c-0.1,0-0.2,0-0.2,0.1c0,0,0,0,0,0c0,0,0,0,0,0c0,0-0.1,0-0.1,0
								c0,0.3,0,0.3,0.2,0.6c0,0,0,0,0.1,0.1c0,0,0,0,0,0c0.8,2.1,1.4,4.4,2,6.6c0.1,0.5,0.3,1.1,0.4,1.6c0.3,2.1,0.5,4.2,1,6.2
								c0.2,0.9,0.5,2.5,1.8,2c1.3-0.5,1.1-3.5,1.2-4.4c0-0.1,0-0.2-0.1-0.2C972.1,345.8,973.7,346.5,973.7,344.8z"/>
							<path class="st14" d="M924.1,342.3c0-0.1-0.1-0.3-0.3-0.3c-1.4-0.3-4,0.1-5.6,0.7c-0.3,0-0.6,0.1-0.8,0.1c0,0,0,0,0,0
								c0,0,0,0,0,0c0,0-0.1,0-0.1,0c0,0,0,0,0,0c0,0,0,0-0.1,0c-0.1,0-0.1,0.1-0.1,0.2c-0.1,0.1-0.1,0.2-0.1,0.3
								c0.2,0.5,0.4,0.9,0.7,1.4c0,0.3,0.1,0.5,0.2,0.9c0,0,0,0,0,0c0,3,0.5,6.1,0.8,8.9c0.3,2.4-0.1,5.6,1,7.8
								c0.2,0.4,0.6,0.3,0.8,0c1.3-1.6,0.9-4.9,0.8-7.1c0.9-0.8,2.7,0.2,3.5-0.6c0.2-0.1,0.3-0.2,0.3-0.4
								C925.7,350.5,925.3,345.8,924.1,342.3z"/>
							<path class="st14" d="M1092.1,311.7c0-0.1-0.1-0.1-0.1-0.2c0,0,0,0,0,0c0.4-0.1,0.1-5.1,0.1-5.7c-0.1-1.7-0.2-3.5-0.4-5.2
								c-0.1-1,0.1-2.8-0.8-3.6c-1.1-1.1-3.5-0.7-4.8-0.8c0-0.1-0.1-0.2-0.2-0.1c-0.2,0.2-0.5,0.4-0.6,0.7c0,0.1,0,0.1,0,0.2
								c0.1,0.1,0.3,0.2,0.5,0.2c0.1,0.1,0.2,0.1,0.3,0.1c0.8,0,1.8-0.1,2.6,0.1c1.9,0.4,1.6,1,1.7,2.5c0.1,1.4,0.2,2.8,0.3,4.1
								c0.2,2.7,0,5.4,0.9,7.9C1091.7,312.2,1092.3,312,1092.1,311.7z"/>
							<path class="st14" d="M1096.8,299.2c-0.1-1.3-0.2-2.6-0.4-3.9c-0.2-1-0.2-2.1-1.1-2.8c-1-0.7-3-1-4.1-0.9
								c-0.1,0-0.2,0.1-0.1,0.2c0.4,0.4,1.4,0.5,1.9,0.6c0.5,0.1,1.1,0.3,1.5,0.5c1.2,0.8,0.8,2.2,0.9,3.5c0.1,1.1,0.1,2.1,0.2,3.2
								c0.3,2.4,0.6,4.9,0.8,7.3c0,0.3,0.6,0.4,0.7,0C1097.7,304.3,1097.1,301.8,1096.8,299.2z"/>
							<path class="st14" d="M1101.3,298c-0.1-2.1,0-4.1-0.1-6.2c0-0.7-1.2-0.8-1.2,0c0.2,3.9,0.4,7.7,0.8,11.5c0,0.4,0.5,0.4,0.6,0
								C1101.6,301.6,1101.4,299.8,1101.3,298z"/>
							<path class="st14" d="M1105.4,298.2c-0.1-1.4-0.1-2.8-0.2-4.2c0-0.2-0.4-0.2-0.5,0c-0.2,1.2-0.2,2.5,0,3.7
								c0.2,1.7,0,3.3,0.3,5c0,0,0.1,0,0.1,0C1105.3,301.2,1105.5,299.7,1105.4,298.2z"/>
							<path class="st14" d="M1087.5,314c-0.1-2.5-0.1-5.1-0.3-7.6c-0.1-1.3-0.1-3.1-1.1-4.1c-0.5-0.5-1.5-0.9-2.1-1
								c-0.1,0-1.2-0.1-1.7-0.2c0,0,0,0,0-0.1c-0.4-0.1-0.9-0.3-1.3-0.1c-0.1,0.1-0.2,0.2-0.1,0.3c0.1,0.3,0.2,0.3,0.4,0.4
								c0.6,0.3,1.2,0.4,1.8,0.7c0.4,0.2,0.6,0.5,0.8,0.8c0,0.1,0.1,0.2,0.1,0.2c0.4,2.7,0.4,5.4,0.9,8c0.3,1.6,0.1,4.4,1.7,5.3
								c0.2,0.1,0.5,0.1,0.6-0.1C1087.8,316,1087.5,314.9,1087.5,314z"/>
							<path class="st14" d="M1076,313.7c0-0.9,0-2.1-0.2-3.2c-0.2-0.9-0.4-1.9-0.7-2.7c-0.2-0.4-0.3-1.5-0.8-1.6
								c-0.4-0.2-0.9,0.4-1.5,0.2c-0.1,0-0.1,0-0.2,0.1c0,0,0,0.1,0,0.1c0,0,0,0,0,0c0.1,0,0.1,0.1,0.2,0.1c0,0.1-0.1,0.1,0,0.2
								c-0.1-0.1-0.1-0.2-0.2-0.3c-0.1-0.1-0.1,0-0.1,0.1c0.1,0.8,0.6,1.6,0.7,2.4c0.1,0.3,0,0.7,0.2,1c0,0.3,0,0.5,0,0.6
								c0.1,0.9,0.2,1.9,0.3,2.8c0.1,0.9,0.1,1.8,0.1,2.7c0,1.1-0.1,2.3,0,3.4c0.1,1.7-0.4,5.1,1.1,6.4c0.2,0.2,0.7,0.2,0.8-0.2
								C1076.5,321.8,1076,317.7,1076,313.7z"/>
							<path class="st14" d="M1067.7,318.7c0-2.6-0.4-5.3-0.7-7.9c-0.1-1.2,0.4-4.1-0.5-5.2c-0.5-0.6-1.5-0.6-2.1-0.7
								c-1-0.1-2.8-0.8-2.5,0.8c0.4,2.2,0.9,4.4,1.2,6.6c0.4,2.2,0.9,4.6,0.8,6.8c0.1,1.3,0.2,6.4,2.8,5.2
								C1067.9,323.7,1067.7,319.6,1067.7,318.7z"/>
							<path class="st14" d="M1052.2,309.1c-0.1-0.3-0.1-0.5-0.2-0.7c-0.1-0.3-0.2-0.6-0.3-0.9c-0.1-0.4-0.4-1.2-0.8-1.4
								c-0.5-0.2-1.4,0.1-1.9,0.2c-1,0.2-2,0.6-3,0.8c-0.2,0-0.2,0.2-0.2,0.4c0.1,0.2,0.2,0.3,0.3,0.5c0.1,0.2,0.2,0.5,0.4,0.7
								c0,0.1,0.7,4,0.8,4.5c0.4,1.9,0.8,3.7,1,5.6c0.4,2.3,0.3,5.3,1.9,7.1c0.1,0.2,0.4,0.2,0.5,0.1c1-0.5,0.8-1.4,1-2.4
								c0.1-0.6,0.3-1.1,0.5-1.7C1054.5,318.5,1053.1,312.5,1052.2,309.1z"/>
							<path class="st14" d="M1035.3,316.3c-0.3-1.6-1-3.7-2.7-4.4c0,0-0.1,0-0.1,0c-0.2-0.1-0.5-0.2-0.8-0.3
								c-1.1-0.2-3.3,0-4.1,0.9c-0.1,0.1,0,0.2,0.1,0.1c0,0,0,0,0,0c-0.1,0.1-0.1,0.2,0,0.3c1.8,1.3,2.2,4.9,2.6,6.9
								c0.4,2.1,0.2,4.1,0.6,6.2c0.4,2.4,0.7,4.6,3.8,3.6c0.9-0.3,1.3-0.8,1.5-1.5c0.2-0.3,0.4-0.7,0.4-1.2c0-0.1,0-0.2,0-0.4
								c0,0,0,0,0,0C1037.1,323.3,1036,319.5,1035.3,316.3z"/>
							<path class="st14" d="M1016.7,327.4c-0.1-0.6-0.2-1.3-0.3-1.9c0,0,0-0.1,0-0.2c0-0.1-0.1-0.2-0.1-0.4c0-0.3-0.1-0.6-0.2-0.8
								c-0.1-0.4-0.2-0.7-0.4-1c-0.7-1.8-1.6-3.8-3-4.6c-0.8-0.5-1.6,0.1-2.4,0.3c-1.1,0.4-2,0.5-2.9,1.3c-0.1,0.1-0.1,0.2,0,0.3
								c0.1,0.1,0.1,0.1,0.2,0.2c0,0,0,0,0,0c1.6,4.2,3.5,8.2,4.4,12.7c0.3,1.5,0.2,5.1,2,5.8c0.3,0.1,0.6-0.1,0.6-0.4
								c0.1-1.2-0.5-4.1,0-5.1c0.3-0.6,0.7-0.8,1.1-1c0.5-0.1,0.9-0.3,1.2-0.8c0,0,0.1-0.1,0.1-0.1c0.2-0.3,0.2-0.6,0.2-0.9
								c0,0,0-0.1,0-0.1C1017.3,329.5,1016.9,328.5,1016.7,327.4z"/>
							<path class="st14" d="M995.3,335.7c-0.5-2-0.9-3.9-1.3-5.9c-0.1-0.6-0.3-1.2-0.6-1.7c-0.9-1.4-2.8-1.5-4.3-1.3
								c-1.2,0.1-2,0.6-3.1,0.9c-0.1,0-0.1,0.1-0.1,0.2c-0.2,0.1-0.3,0.4-0.1,0.5c2.2,1.4,2.5,5.2,3,7.6c0.5,2.3,1,4.6,1.7,6.9
								c0.3,1,1.2,4.6,3,3.2c0.6-0.5,0.4-1.4,0.6-2c0.4-1.5,1.7-2.4,2-3.9c0.3-1.4-0.5-3-0.8-4.3
								C995.3,335.8,995.3,335.7,995.3,335.7z"/>
							<path class="st14" d="M1083.1,314.7c-0.3-2-0.4-4.4-1.1-6.3c-0.4-1-1.3-1.7-2.2-2.1c-1-0.5-2.2-1.3-3.4-1
								c0.3,0.3,0.8,0.4,1.1,0.6c0.5,0.6,1.2,1,1.8,1.5c1.5,1.2,1.6,2.7,1.8,4.6c0.3,3,1.1,5.7,1.7,8.7c0,0.2,0.2,0.2,0.3,0.2
								c0.1,0,0.2,0,0.2,0c0.1,0,0.2-0.1,0.2-0.2C1084,318.6,1083.4,316.6,1083.1,314.7z"/>
						</g>
					</g>
				</g>
			</g>
			<path class="st10" d="M1178.1,354c-5.9,0.8-9.9,5.3-10.9,11.1c-0.1,0.6-0.2,1.3-0.2,2c-7.9-5.1-19.5-3.9-27.1,2
				c-6.1,4.7-11.3,13.7-11.3,21.9c-4.9-2.1-10.6-1.8-15.5,1.7c-4.9,3.4-9.9,7.8-11.3,13.9c-1.2,5.2-0.5,11.1,0.4,16.7
				c-2.1-2.4-4.2-4.8-7.3-6.3c-5.7-2.8-12.4-3.7-18.6-2.5c-8.6,1.7-13.1,9-15.2,16.8c-5-9.8-12.9-18.1-23.6-20
				c-12.5-2.2-27.4,4.6-32.4,16.2c-3.6-8.6-10.9-17.4-19.7-15.2c-10.8,2.7-20.6,10.7-24.1,20.9c-4.7-8.8-14.4-15.3-24.4-12.7
				c-5.8,1.5-10,6.1-12.3,11.4c-2.6,6-2.6,10.6-1.7,15.9c-0.9-0.8-1.9-1.6-3.3-2.2c-3.1-1.3-6.6-1.8-10-1.6c-6,0.4-12,3.5-15.1,8.8
				c-0.9,1.5-1.4,3.1-1.7,4.7c3,6.6,6,12.1,7.7,14.8c2.7,4.2,6.6,10.4,10,15.6c3.4,1.4,7.6,1.8,11.1,2.1c14.9,1.4,29.8-0.9,44.8-0.3
				c15.3,0.6,30.5,1.5,45.8,1.6c15.9,0.1,31.5,1.1,47.3,1.6c28.2,1,57.7,2.8,85.7-0.4c11.4-1.3,22.9-1.9,34.2-3.5
				c3.1-0.4,5.1-1.4,6.7-2.8c0.1,1.4,1.9,2.4,3.2,1.2c4.6-4.3,4.2-13.9,5.2-19.8c1.7-10.1,3.5-20.1,5.4-30.1
				c0.8-4,3.5-41.8,3.5-49.8c0.4-0.2,0.7-0.7,0.7-1.3C1205,372.5,1195.4,351.7,1178.1,354z"/>
		</g>
	</g>
</g>
<path d="M121.5,287.2c0-0.4,0-0.7-0.1-0.8c-0.1-0.2-0.3-0.3-0.6-0.3l-1.5-0.3v-0.8c0.5,0,1.2,0,1.9,0c0.7,0,1.5-0.1,2.3-0.1
	c0.8,0,1.6-0.1,2.3-0.1c0.8,0,1.4,0,2,0c1.3,0,2.5,0.2,3.6,0.5c1.1,0.3,2.1,0.8,2.9,1.5c0.8,0.6,1.5,1.5,2,2.4
	c0.5,1,0.7,2.1,0.7,3.4c0,1.2-0.2,2.2-0.7,3.2s-1.1,1.9-1.9,2.6c-0.8,0.7-1.7,1.3-2.8,1.7c-1,0.4-2.2,0.6-3.4,0.5l-4-0.1h-5.2v-0.8
	l1.7-0.4c0.3-0.1,0.5-0.2,0.6-0.3c0.1-0.2,0.2-0.5,0.2-0.9V287.2z M124.5,297.4c0,0.3,0.1,0.5,0.2,0.8s0.3,0.5,0.6,0.7
	c0.3,0.2,0.6,0.4,1,0.5c0.4,0.1,0.9,0.2,1.5,0.2c1,0,1.9-0.2,2.7-0.5c0.7-0.4,1.3-0.9,1.8-1.5c0.5-0.6,0.8-1.4,1-2.3
	c0.2-0.9,0.3-1.8,0.3-2.9c0-2.1-0.6-3.7-1.7-4.9s-2.8-1.8-4.9-1.8c-0.4,0-0.7,0-0.9,0c-0.2,0-0.4,0-0.6,0c-0.1,0-0.3,0.1-0.4,0.1
	c-0.1,0-0.1,0.1-0.2,0.1c-0.2,0.2-0.3,0.6-0.3,1.2V297.4z"/>
<path d="M144.3,301c-0.9,0-1.6-0.1-2.3-0.4c-0.7-0.3-1.2-0.6-1.6-1.1c-0.4-0.5-0.8-1-1-1.6c-0.2-0.6-0.3-1.3-0.3-2.1
	c0-0.8,0.1-1.5,0.3-2.1c0.2-0.6,0.5-1.2,1-1.6c0.4-0.5,1-0.8,1.7-1.1c0.7-0.3,1.5-0.4,2.5-0.4c0.9,0,1.8,0.1,2.4,0.4
	c0.7,0.3,1.2,0.6,1.7,1.1c0.4,0.5,0.8,1,1,1.7c0.2,0.6,0.3,1.3,0.3,2.1c0,0.8-0.1,1.5-0.4,2.1s-0.6,1.2-1.1,1.6
	c-0.5,0.4-1.1,0.8-1.8,1C146,300.9,145.2,301,144.3,301z M142.2,296c0,1.2,0.2,2.2,0.6,3c0.4,0.7,0.9,1.1,1.7,1.1
	c0.7,0,1.3-0.4,1.7-1.2c0.4-0.8,0.6-1.8,0.6-3s-0.2-2.3-0.6-3.1s-0.9-1.2-1.7-1.2c-0.8,0-1.3,0.4-1.7,1.1
	C142.4,293.4,142.2,294.5,142.2,296z"/>
<path d="M160.8,298.2c-0.2,0.3-0.4,0.6-0.6,0.9c-0.2,0.3-0.5,0.6-0.9,0.9s-0.7,0.5-1.2,0.7c-0.4,0.2-1,0.3-1.5,0.3
	c-1.5,0-2.6-0.4-3.5-1.3c-0.9-0.9-1.3-2.1-1.3-3.7c0-0.8,0.1-1.5,0.4-2.2c0.3-0.7,0.7-1.2,1.2-1.7c0.5-0.5,1.1-0.8,1.8-1.1
	c0.7-0.3,1.4-0.4,2.2-0.4c0.9,0,1.6,0.1,2.2,0.4s0.9,0.7,0.9,1.2c0,0.3-0.1,0.6-0.3,0.8c-0.2,0.2-0.4,0.3-0.7,0.3
	c-0.2,0-0.5-0.1-0.7-0.3c-0.2-0.2-0.5-0.4-0.7-0.6c-0.2-0.2-0.5-0.4-0.8-0.6c-0.3-0.2-0.5-0.3-0.8-0.3c-0.4,0-0.7,0.1-0.9,0.3
	s-0.5,0.5-0.6,0.9c-0.2,0.4-0.3,0.7-0.3,1.2c-0.1,0.4-0.1,0.8-0.1,1.2c0,0.6,0.1,1.1,0.2,1.5s0.4,0.8,0.6,1.1
	c0.3,0.3,0.6,0.5,0.9,0.7c0.4,0.2,0.7,0.3,1.1,0.3c0.6,0.1,1.2,0,1.7-0.2c0.5-0.2,1-0.5,1.5-0.9L160.8,298.2z"/>
<path d="M162.3,291.1h4.5v6c0,0.8,0.1,1.4,0.4,1.7c0.3,0.3,0.7,0.5,1.1,0.5c0.4,0,0.7-0.1,1-0.2s0.6-0.3,0.9-0.6v-5.8
	c0-0.1,0-0.2,0-0.4s-0.1-0.2-0.2-0.3c-0.1-0.1-0.3-0.1-0.5-0.2c-0.2,0-0.6-0.1-1-0.1v-0.6h4.7v7.1c0,0.2,0,0.5,0,0.6
	s0.1,0.3,0.2,0.4c0.1,0.1,0.2,0.2,0.5,0.2c0.2,0,0.5,0.1,0.9,0.1c0,0.1,0,0.2,0,0.3c0,0.1,0,0.2,0,0.3l-4.4,0.9v-1.9
	c-0.3,0.3-0.5,0.6-0.8,0.8s-0.5,0.4-0.8,0.6c-0.3,0.2-0.6,0.3-0.9,0.4c-0.3,0.1-0.7,0.1-1.1,0.1c-1,0-1.8-0.3-2.2-0.9
	c-0.4-0.6-0.6-1.4-0.6-2.5v-5c0-0.1,0-0.3,0-0.4c0-0.1-0.1-0.2-0.2-0.2c-0.1-0.1-0.3-0.1-0.5-0.2s-0.5-0.1-0.9-0.2V291.1z"/>
<path d="M188.9,300l0.7-0.1c0.4-0.1,0.7-0.2,0.8-0.3c0.1-0.1,0.2-0.4,0.2-0.7v-4.2c0-0.3,0-0.5,0-0.8c0-0.3-0.1-0.5-0.2-0.8
	c-0.1-0.2-0.2-0.4-0.4-0.5c-0.2-0.1-0.5-0.2-0.8-0.2c-0.4,0-0.8,0.2-1.2,0.5c-0.4,0.4-0.7,0.8-1,1.2v4.5c0,0.4,0,0.6,0.1,0.8
	c0.1,0.2,0.2,0.3,0.6,0.4l0.8,0.2v0.6c-0.9-0.1-1.8-0.1-2.8-0.1c-1,0-1.9,0-2.9,0.1V300l0.5-0.2c0.3-0.1,0.5-0.2,0.6-0.4
	c0.1-0.2,0.2-0.4,0.2-0.8v-4.1c0-0.3,0-0.5-0.1-0.8c-0.1-0.3-0.1-0.5-0.2-0.8s-0.3-0.4-0.4-0.5c-0.2-0.1-0.4-0.2-0.7-0.2
	c-0.3,0-0.5,0.1-0.8,0.2c-0.2,0.1-0.4,0.2-0.6,0.4c-0.2,0.2-0.3,0.4-0.5,0.6c-0.1,0.2-0.2,0.4-0.3,0.6v4.6c0,0.4,0.1,0.7,0.2,0.9
	s0.3,0.2,0.5,0.3l1,0.2v0.6c-0.4,0-0.9-0.1-1.4-0.1c-0.5,0-1.1,0-1.6,0c-0.6,0-1.1,0-1.6,0c-0.5,0-1,0-1.5,0.1V300l0.6-0.2
	c0.4-0.1,0.6-0.2,0.7-0.3c0.1-0.2,0.2-0.4,0.2-0.8v-5.2c0-0.2,0-0.4,0-0.5s-0.1-0.3-0.1-0.4c-0.1-0.1-0.2-0.2-0.4-0.2
	c-0.2-0.1-0.4-0.1-0.7-0.1V292c0.2,0,0.5-0.1,0.8-0.2c0.3-0.1,0.7-0.2,1-0.4c0.4-0.1,0.7-0.3,1-0.5s0.6-0.4,0.8-0.7h0.5v2.4
	c0.7-0.7,1.3-1.2,1.7-1.5c0.5-0.3,1-0.5,1.6-0.5c0.8,0,1.5,0.1,2,0.4c0.5,0.3,0.9,0.9,1.1,1.7c0.3-0.3,0.5-0.6,0.8-0.9
	c0.2-0.3,0.5-0.5,0.7-0.7c0.3-0.2,0.5-0.3,0.9-0.4c0.3-0.1,0.7-0.2,1.1-0.2c0.5,0,0.9,0.1,1.3,0.1c0.4,0.1,0.7,0.3,1,0.6
	c0.3,0.3,0.5,0.6,0.6,1.1c0.1,0.4,0.2,1,0.2,1.7v4.8c0,0.6,0.1,1,0.4,1l0.9,0.2v0.6c-0.4,0-0.9-0.1-1.4-0.1c-0.5,0-1.1,0-1.6,0
	s-1.1,0-1.6,0c-0.5,0-0.9,0-1.2,0.1V300z"/>
<path d="M205.6,294.7h-6.2c0,0.2-0.1,0.3-0.1,0.3c0,0,0,0.1,0,0.3c0,0.5,0.1,1,0.2,1.5c0.1,0.4,0.4,0.8,0.6,1.1
	c0.3,0.3,0.6,0.6,1,0.8c0.4,0.2,0.8,0.3,1.3,0.3c0.6,0,1.1-0.1,1.6-0.2c0.5-0.2,1-0.5,1.6-1l0.1,0.4c-0.2,0.4-0.4,0.8-0.7,1.1
	c-0.3,0.3-0.6,0.7-0.9,0.9c-0.4,0.3-0.8,0.5-1.3,0.6c-0.5,0.2-1.1,0.2-1.7,0.2c-0.7,0-1.3-0.1-1.9-0.4s-1.1-0.6-1.5-1
	c-0.4-0.5-0.7-1-1-1.6c-0.2-0.6-0.3-1.3-0.3-2.1c0-0.8,0.1-1.5,0.4-2.1c0.2-0.6,0.6-1.2,1-1.6c0.4-0.5,1-0.8,1.6-1.1
	c0.6-0.2,1.3-0.4,2.1-0.4c0.7,0,1.3,0.1,1.8,0.3c0.5,0.2,0.9,0.5,1.2,0.9s0.6,0.8,0.7,1.3C205.5,293.6,205.6,294.2,205.6,294.7z
	 M199.6,293.8h2.4c0.4,0,0.7-0.2,0.7-0.7c0-0.5-0.1-0.9-0.2-1.2c-0.1-0.3-0.4-0.5-0.9-0.5C200.5,291.4,199.9,292.2,199.6,293.8z"/>
<path d="M219.9,300.7c-0.9-0.1-1.8-0.1-2.9-0.1s-2,0-2.9,0.1V300l0.9-0.2c0.4,0,0.5-0.4,0.5-1v-4.2c0-0.4,0-0.7,0-1
	c0-0.3-0.1-0.5-0.2-0.7c-0.1-0.2-0.2-0.3-0.4-0.4c-0.2-0.1-0.5-0.1-0.8-0.1c-0.4,0-0.8,0.1-1.2,0.4c-0.4,0.2-0.8,0.5-1.1,0.9v5.5
	c0,0.3,0.2,0.5,0.6,0.6l0.7,0.4v0.6c-0.1,0-0.3,0-0.4,0s-0.3,0-0.5,0c-0.2,0-0.4,0-0.5,0c-0.2,0-0.5,0-0.8,0h-0.8
	c-0.5,0-1.1,0-1.6,0c-0.5,0-0.9,0-1.2,0.1V300l1.1-0.2c0.2,0,0.3-0.1,0.4-0.2c0.1-0.1,0.1-0.3,0.1-0.5v-4.9c0-0.5-0.1-0.9-0.3-1
	c-0.2-0.2-0.6-0.3-1.1-0.4v-0.5c0.3-0.1,0.6-0.1,0.9-0.2s0.7-0.2,1.1-0.4c0.4-0.2,0.7-0.4,1-0.6c0.3-0.2,0.5-0.5,0.7-0.8h0.7v2.4
	c0.5-0.6,1-1.1,1.6-1.5c0.6-0.3,1.2-0.5,1.8-0.5c1,0,1.7,0.3,2.3,0.9c0.6,0.6,0.9,1.4,0.9,2.6v4.8c0,0.3,0,0.6,0.1,0.7
	c0.1,0.2,0.2,0.3,0.5,0.3l0.9,0.2V300.7z"/>
<path d="M225.3,288.5h0.5c0,0.4,0,0.9,0,1.3c0,0.4,0,0.9,0,1.3l3.1-0.1v1.2l-3.1,0.1v4.5c0,0.7,0.1,1.3,0.3,1.6
	c0.2,0.3,0.6,0.5,1.1,0.5c0.2,0,0.5,0,0.8-0.1c0.3-0.1,0.6-0.2,1-0.5l0.2,0.4c-0.1,0.2-0.3,0.5-0.5,0.7c-0.2,0.3-0.4,0.5-0.7,0.7
	c-0.3,0.2-0.6,0.4-1,0.5s-0.8,0.2-1.2,0.2c-0.9,0-1.6-0.2-2.1-0.7s-0.7-1.3-0.7-2.4v-5.4c-0.2,0-0.5,0-0.7,0s-0.4,0-0.7,0
	s-0.4-0.1-0.4-0.3c0-0.2,0.1-0.4,0.3-0.5c0.4-0.1,0.7-0.3,1-0.5c0.3-0.2,0.6-0.3,0.8-0.5c0.1-0.1,0.2-0.2,0.4-0.3
	c0.2-0.1,0.4-0.3,0.5-0.5c0.2-0.2,0.4-0.4,0.5-0.6C225,289,225.2,288.8,225.3,288.5z"/>
<path d="M241.3,288.5h0.5c0,0.4,0,0.9,0,1.3c0,0.4,0,0.9,0,1.3l3.1-0.1v1.2l-3.1,0.1v4.5c0,0.7,0.1,1.3,0.3,1.6
	c0.2,0.3,0.6,0.5,1.1,0.5c0.2,0,0.5,0,0.8-0.1c0.3-0.1,0.6-0.2,1-0.5l0.2,0.4c-0.1,0.2-0.3,0.5-0.5,0.7c-0.2,0.3-0.4,0.5-0.7,0.7
	c-0.3,0.2-0.6,0.4-1,0.5s-0.8,0.2-1.2,0.2c-0.9,0-1.6-0.2-2.1-0.7s-0.7-1.3-0.7-2.4v-5.4c-0.2,0-0.5,0-0.7,0s-0.4,0-0.7,0
	s-0.4-0.1-0.4-0.3c0-0.2,0.1-0.4,0.3-0.5c0.4-0.1,0.7-0.3,1-0.5c0.3-0.2,0.6-0.3,0.8-0.5c0.1-0.1,0.2-0.2,0.4-0.3
	c0.2-0.1,0.4-0.3,0.5-0.5c0.2-0.2,0.4-0.4,0.5-0.6C241.1,289,241.2,288.8,241.3,288.5z"/>
<path d="M246.6,300.7v-0.4l0.8-0.2c0.3-0.1,0.5-0.2,0.6-0.4c0.1-0.2,0.1-0.5,0.1-0.9V294c0-0.3-0.1-0.6-0.2-0.8
	c-0.1-0.2-0.5-0.3-1-0.4l-0.4,0v-0.5c0.3-0.1,0.7-0.2,1-0.3s0.7-0.3,1.1-0.5c0.4-0.2,0.7-0.4,1-0.7c0.3-0.2,0.6-0.5,0.8-0.8h0.5
	c0,0.5,0,0.9,0,1.3c0,0.4,0,0.9,0.1,1.5c0.1-0.3,0.3-0.5,0.4-0.8c0.1-0.2,0.3-0.5,0.6-0.8c0.2-0.3,0.5-0.5,0.8-0.6
	c0.3-0.1,0.5-0.1,0.7-0.1c0.4,0,0.8,0.1,1.1,0.4c0.3,0.2,0.5,0.7,0.5,1.2c0,0.5-0.1,1-0.4,1.3s-0.6,0.5-1,0.5
	c-0.2,0-0.4-0.1-0.6-0.2c-0.2-0.1-0.3-0.3-0.4-0.4c-0.1-0.1-0.2-0.3-0.3-0.4c-0.1-0.1-0.2-0.2-0.3-0.2c-0.2,0-0.4,0.2-0.6,0.5
	c-0.2,0.3-0.3,0.7-0.4,1.2c0,0.2-0.1,0.4-0.1,0.5c0,0.2,0,0.3,0,0.4v3.5c0,0.4,0.1,0.6,0.2,0.8c0.2,0.1,0.5,0.3,0.9,0.4l0.8,0.2v0.4
	c-0.4,0-0.8-0.1-1.2-0.1c-0.5,0-0.9,0-1.3,0h-0.6c-0.5,0-1.1,0-1.6,0C247.6,300.6,247.1,300.7,246.6,300.7z"/>
<path d="M260.7,301c-0.7,0-1.3-0.1-1.8-0.4s-0.9-0.6-1.2-1c-0.3-0.4-0.5-0.9-0.7-1.5c-0.1-0.6-0.2-1.2-0.2-1.8
	c0-0.9,0.1-1.7,0.4-2.4c0.3-0.7,0.6-1.3,1.1-1.7c0.4-0.5,1-0.8,1.6-1.1c0.6-0.2,1.2-0.4,1.9-0.4c0.5,0,0.9,0,1.2,0.1
	c0.4,0.1,0.6,0.1,0.9,0.2c0.3,0.1,0.5,0.2,0.7,0.3l1.6-0.9l0.2,0.1v7.7c0,0.7,0.3,1,0.9,0.9c0.1,0,0.2,0,0.3-0.1
	c0.1,0,0.1-0.1,0.2-0.1c0.1-0.1,0.1-0.1,0.2-0.1l0.2,0.3c-0.1,0.3-0.3,0.6-0.5,0.9c-0.2,0.2-0.4,0.4-0.7,0.6
	c-0.3,0.2-0.7,0.3-1.1,0.3c-0.7,0-1.3-0.2-1.6-0.7c-0.3-0.4-0.5-1-0.5-1.6v-0.6c-0.1,0.4-0.2,0.7-0.4,1.1c-0.2,0.3-0.4,0.6-0.6,0.9
	c-0.2,0.3-0.5,0.5-0.9,0.6C261.5,300.9,261.1,301,260.7,301z M263.7,295.2c0-0.4,0-0.7,0-1.1c0-0.4-0.1-0.7-0.2-1.1
	c-0.1-0.3-0.3-0.6-0.5-0.8c-0.2-0.2-0.6-0.3-1-0.3c-0.2,0-0.5,0.1-0.7,0.2s-0.5,0.3-0.7,0.6c-0.2,0.3-0.4,0.7-0.5,1.2
	s-0.2,1.1-0.2,1.8c0,0.5,0,1,0.1,1.4c0.1,0.5,0.2,0.8,0.4,1.2c0.2,0.3,0.4,0.6,0.6,0.8c0.2,0.2,0.5,0.3,0.9,0.3
	c0.3,0,0.6-0.1,0.9-0.3s0.5-0.5,0.6-0.9c0.2-0.4,0.3-0.8,0.4-1.2c0.1-0.5,0.1-1,0.1-1.5V295.2z"/>
<path d="M282,300.7c-0.9-0.1-1.8-0.1-2.9-0.1s-2,0-2.9,0.1V300l0.9-0.2c0.4,0,0.5-0.4,0.5-1v-4.2c0-0.4,0-0.7,0-1
	c0-0.3-0.1-0.5-0.2-0.7c-0.1-0.2-0.2-0.3-0.4-0.4c-0.2-0.1-0.5-0.1-0.8-0.1c-0.4,0-0.8,0.1-1.2,0.4c-0.4,0.2-0.8,0.5-1.1,0.9v5.5
	c0,0.3,0.2,0.5,0.6,0.6l0.7,0.4v0.6c-0.1,0-0.3,0-0.4,0s-0.3,0-0.5,0c-0.2,0-0.4,0-0.5,0c-0.2,0-0.5,0-0.8,0h-0.8
	c-0.5,0-1.1,0-1.6,0c-0.5,0-0.9,0-1.2,0.1V300l1.1-0.2c0.2,0,0.3-0.1,0.4-0.2c0.1-0.1,0.1-0.3,0.1-0.5v-4.9c0-0.5-0.1-0.9-0.3-1
	c-0.2-0.2-0.6-0.3-1.1-0.4v-0.5c0.3-0.1,0.6-0.1,0.9-0.2s0.7-0.2,1.1-0.4c0.4-0.2,0.7-0.4,1-0.6c0.3-0.2,0.5-0.5,0.7-0.8h0.7v2.4
	c0.5-0.6,1-1.1,1.6-1.5c0.6-0.3,1.2-0.5,1.8-0.5c1,0,1.7,0.3,2.3,0.9c0.6,0.6,0.9,1.4,0.9,2.6v4.8c0,0.3,0,0.6,0.1,0.7
	c0.1,0.2,0.2,0.3,0.5,0.3l0.9,0.2V300.7z"/>
<path d="M290,293.9c0-0.2-0.1-0.5-0.2-0.8c-0.1-0.3-0.2-0.5-0.4-0.8c-0.2-0.2-0.4-0.4-0.7-0.6c-0.3-0.2-0.6-0.2-1.1-0.2
	c-0.2,0-0.4,0-0.6,0c-0.2,0-0.4,0.1-0.5,0.2c-0.2,0.1-0.3,0.2-0.4,0.3c-0.1,0.2-0.1,0.3-0.1,0.6c0,0.2,0.1,0.5,0.2,0.6
	c0.1,0.2,0.3,0.3,0.6,0.4s0.5,0.2,0.9,0.3c0.3,0.1,0.7,0.2,1.1,0.3c0.5,0.1,1,0.3,1.4,0.5c0.3,0.2,0.6,0.4,0.8,0.7
	c0.2,0.2,0.3,0.5,0.4,0.8s0.1,0.6,0.1,0.9c0,0.7-0.1,1.2-0.4,1.7s-0.6,0.8-1,1.1c-0.4,0.3-0.9,0.5-1.4,0.6s-1.1,0.2-1.7,0.2
	c-0.6,0-1.2-0.1-1.7-0.2c-0.5-0.1-1-0.3-1.4-0.5l-0.2-3.1h0.6c0.2,0.9,0.6,1.6,1.1,2.1c0.5,0.5,1.1,0.7,1.9,0.7
	c0.5,0,0.9-0.1,1.3-0.3c0.4-0.2,0.6-0.6,0.6-1.2c0-0.5-0.2-0.8-0.5-1.1c-0.3-0.2-0.9-0.4-1.8-0.6c-1.2-0.3-2.1-0.7-2.6-1.2
	c-0.5-0.5-0.7-1.2-0.7-2c0-0.5,0.1-0.9,0.4-1.3c0.2-0.4,0.6-0.7,1-0.9c0.4-0.2,0.8-0.4,1.3-0.6s1-0.2,1.5-0.2c0.5,0,1,0.1,1.5,0.1
	c0.5,0.1,0.9,0.2,1.2,0.5l0.1,2.7H290z"/>
<path d="M299,300.7c-0.4,0-0.9,0-1.4-0.1c-0.5,0-1.1,0-1.6,0s-1.1,0-1.6,0c-0.5,0-1,0-1.4,0.1V300l1.1-0.3c0.2,0,0.4-0.1,0.5-0.2
	c0.1-0.1,0.1-0.2,0.1-0.5v-12.2c0-0.4-0.1-0.6-0.3-0.8c-0.2-0.2-0.6-0.4-1.3-0.6v-0.6c0.2,0,0.4-0.1,0.7-0.1c0.3-0.1,0.7-0.1,1-0.2
	c0.4-0.1,0.8-0.1,1.1-0.2c0.4-0.1,0.7-0.2,1-0.3h0.6V299c0,0.3,0,0.5,0.1,0.6c0.1,0.1,0.2,0.1,0.5,0.2l0.8,0.2V300.7z"/>
<path d="M304.5,301c-0.7,0-1.3-0.1-1.8-0.4s-0.9-0.6-1.2-1c-0.3-0.4-0.5-0.9-0.7-1.5c-0.1-0.6-0.2-1.2-0.2-1.8
	c0-0.9,0.1-1.7,0.4-2.4c0.3-0.7,0.6-1.3,1.1-1.7c0.4-0.5,1-0.8,1.6-1.1c0.6-0.2,1.2-0.4,1.9-0.4c0.5,0,0.9,0,1.2,0.1
	c0.4,0.1,0.6,0.1,0.9,0.2c0.3,0.1,0.5,0.2,0.7,0.3l1.6-0.9l0.2,0.1v7.7c0,0.7,0.3,1,0.9,0.9c0.1,0,0.2,0,0.3-0.1
	c0.1,0,0.1-0.1,0.2-0.1c0.1-0.1,0.1-0.1,0.2-0.1l0.2,0.3c-0.1,0.3-0.3,0.6-0.5,0.9c-0.2,0.2-0.4,0.4-0.7,0.6
	c-0.3,0.2-0.7,0.3-1.1,0.3c-0.7,0-1.3-0.2-1.6-0.7c-0.3-0.4-0.5-1-0.5-1.6v-0.6c-0.1,0.4-0.2,0.7-0.4,1.1c-0.2,0.3-0.4,0.6-0.6,0.9
	c-0.2,0.3-0.5,0.5-0.9,0.6C305.3,300.9,304.9,301,304.5,301z M307.5,295.2c0-0.4,0-0.7,0-1.1c0-0.4-0.1-0.7-0.2-1.1
	c-0.1-0.3-0.3-0.6-0.5-0.8c-0.2-0.2-0.6-0.3-1-0.3c-0.2,0-0.5,0.1-0.7,0.2s-0.5,0.3-0.7,0.6c-0.2,0.3-0.4,0.7-0.5,1.2
	s-0.2,1.1-0.2,1.8c0,0.5,0,1,0.1,1.4c0.1,0.5,0.2,0.8,0.4,1.2c0.2,0.3,0.4,0.6,0.6,0.8c0.2,0.2,0.5,0.3,0.9,0.3
	c0.3,0,0.6-0.1,0.9-0.3s0.5-0.5,0.6-0.9c0.2-0.4,0.3-0.8,0.4-1.2c0.1-0.5,0.1-1,0.1-1.5V295.2z"/>
<path d="M317.3,288.5h0.5c0,0.4,0,0.9,0,1.3c0,0.4,0,0.9,0,1.3l3.1-0.1v1.2l-3.1,0.1v4.5c0,0.7,0.1,1.3,0.3,1.6
	c0.2,0.3,0.6,0.5,1.1,0.5c0.2,0,0.5,0,0.8-0.1c0.3-0.1,0.6-0.2,1-0.5l0.2,0.4c-0.1,0.2-0.3,0.5-0.5,0.7c-0.2,0.3-0.4,0.5-0.7,0.7
	c-0.3,0.2-0.6,0.4-1,0.5s-0.8,0.2-1.2,0.2c-0.9,0-1.6-0.2-2.1-0.7s-0.7-1.3-0.7-2.4v-5.4c-0.2,0-0.5,0-0.7,0s-0.4,0-0.7,0
	s-0.4-0.1-0.4-0.3c0-0.2,0.1-0.4,0.3-0.5c0.4-0.1,0.7-0.3,1-0.5c0.3-0.2,0.6-0.3,0.8-0.5c0.1-0.1,0.2-0.2,0.4-0.3
	c0.2-0.1,0.4-0.3,0.5-0.5c0.2-0.2,0.4-0.4,0.5-0.6C317,289,317.2,288.8,317.3,288.5z"/>
<path d="M328.5,300.7c-0.3,0-0.7-0.1-1.2-0.1c-0.5,0-1.1,0-1.8,0c-0.7,0-1.3,0-1.8,0c-0.5,0-0.9,0-1.2,0.1V300l1-0.2
	c0.5-0.1,0.8-0.4,0.8-0.9v-4.5c0-0.4-0.1-0.7-0.3-0.9c-0.2-0.2-0.6-0.3-1.2-0.5v-0.6c0.3-0.1,0.6-0.2,1-0.3c0.4-0.1,0.7-0.3,1.1-0.4
	c0.4-0.2,0.7-0.3,1-0.5c0.3-0.2,0.5-0.4,0.7-0.6c0.1,0,0.2,0,0.3,0s0.2,0,0.3,0v8.3c0,0.2,0,0.4,0.1,0.6c0.1,0.1,0.2,0.2,0.4,0.3
	l0.9,0.3V300.7z M325.9,285.2c0.4,0,0.8,0.2,1.1,0.5c0.3,0.3,0.5,0.7,0.5,1.1c0,0.4-0.2,0.7-0.5,1c-0.3,0.3-0.7,0.5-1.1,0.5
	c-0.4,0-0.8-0.1-1.1-0.4c-0.3-0.3-0.4-0.7-0.4-1.1c0-0.4,0.2-0.8,0.5-1.1C325.1,285.4,325.5,285.2,325.9,285.2z"/>
<path d="M335.3,301c-0.9,0-1.6-0.1-2.3-0.4c-0.7-0.3-1.2-0.6-1.6-1.1c-0.4-0.5-0.8-1-1-1.6c-0.2-0.6-0.3-1.3-0.3-2.1
	c0-0.8,0.1-1.5,0.3-2.1c0.2-0.6,0.5-1.2,1-1.6c0.4-0.5,1-0.8,1.7-1.1c0.7-0.3,1.5-0.4,2.5-0.4c0.9,0,1.8,0.1,2.4,0.4
	c0.7,0.3,1.2,0.6,1.7,1.1c0.4,0.5,0.8,1,1,1.7c0.2,0.6,0.3,1.3,0.3,2.1c0,0.8-0.1,1.5-0.4,2.1s-0.6,1.2-1.1,1.6
	c-0.5,0.4-1.1,0.8-1.8,1C337,300.9,336.2,301,335.3,301z M333.2,296c0,1.2,0.2,2.2,0.6,3c0.4,0.7,0.9,1.1,1.7,1.1
	c0.7,0,1.3-0.4,1.7-1.2c0.4-0.8,0.6-1.8,0.6-3s-0.2-2.3-0.6-3.1s-0.9-1.2-1.7-1.2c-0.8,0-1.3,0.4-1.7,1.1
	C333.4,293.4,333.2,294.5,333.2,296z"/>
<path d="M355.1,300.7c-0.9-0.1-1.8-0.1-2.9-0.1s-2,0-2.9,0.1V300l0.9-0.2c0.4,0,0.5-0.4,0.5-1v-4.2c0-0.4,0-0.7,0-1
	c0-0.3-0.1-0.5-0.2-0.7c-0.1-0.2-0.2-0.3-0.4-0.4c-0.2-0.1-0.5-0.1-0.8-0.1c-0.4,0-0.8,0.1-1.2,0.4c-0.4,0.2-0.8,0.5-1.1,0.9v5.5
	c0,0.3,0.2,0.5,0.6,0.6l0.7,0.4v0.6c-0.1,0-0.3,0-0.4,0s-0.3,0-0.5,0c-0.2,0-0.4,0-0.5,0c-0.2,0-0.5,0-0.8,0h-0.8
	c-0.5,0-1.1,0-1.6,0c-0.5,0-0.9,0-1.2,0.1V300l1.1-0.2c0.2,0,0.3-0.1,0.4-0.2c0.1-0.1,0.1-0.3,0.1-0.5v-4.9c0-0.5-0.1-0.9-0.3-1
	c-0.2-0.2-0.6-0.3-1.1-0.4v-0.5c0.3-0.1,0.6-0.1,0.9-0.2s0.7-0.2,1.1-0.4c0.4-0.2,0.7-0.4,1-0.6c0.3-0.2,0.5-0.5,0.7-0.8h0.7v2.4
	c0.5-0.6,1-1.1,1.6-1.5c0.6-0.3,1.2-0.5,1.8-0.5c1,0,1.7,0.3,2.3,0.9c0.6,0.6,0.9,1.4,0.9,2.6v4.8c0,0.3,0,0.6,0.1,0.7
	c0.1,0.2,0.2,0.3,0.5,0.3l0.9,0.2V300.7z"/>
<path d="M372.6,298.2c-0.2,0.3-0.4,0.6-0.6,0.9c-0.2,0.3-0.5,0.6-0.9,0.9s-0.7,0.5-1.2,0.7c-0.4,0.2-1,0.3-1.5,0.3
	c-1.5,0-2.6-0.4-3.5-1.3c-0.9-0.9-1.3-2.1-1.3-3.7c0-0.8,0.1-1.5,0.4-2.2c0.3-0.7,0.7-1.2,1.2-1.7c0.5-0.5,1.1-0.8,1.8-1.1
	c0.7-0.3,1.4-0.4,2.2-0.4c0.9,0,1.6,0.1,2.2,0.4s0.9,0.7,0.9,1.2c0,0.3-0.1,0.6-0.3,0.8c-0.2,0.2-0.4,0.3-0.7,0.3
	c-0.2,0-0.5-0.1-0.7-0.3c-0.2-0.2-0.5-0.4-0.7-0.6c-0.2-0.2-0.5-0.4-0.8-0.6c-0.3-0.2-0.5-0.3-0.8-0.3c-0.4,0-0.7,0.1-0.9,0.3
	s-0.5,0.5-0.6,0.9c-0.2,0.4-0.3,0.7-0.3,1.2c-0.1,0.4-0.1,0.8-0.1,1.2c0,0.6,0.1,1.1,0.2,1.5s0.4,0.8,0.6,1.1
	c0.3,0.3,0.6,0.5,0.9,0.7c0.4,0.2,0.7,0.3,1.1,0.3c0.6,0.1,1.2,0,1.7-0.2c0.5-0.2,1-0.5,1.5-0.9L372.6,298.2z"/>
<path d="M379.6,301c-0.9,0-1.6-0.1-2.3-0.4c-0.7-0.3-1.2-0.6-1.6-1.1c-0.4-0.5-0.8-1-1-1.6c-0.2-0.6-0.3-1.3-0.3-2.1
	c0-0.8,0.1-1.5,0.3-2.1c0.2-0.6,0.5-1.2,1-1.6c0.4-0.5,1-0.8,1.7-1.1c0.7-0.3,1.5-0.4,2.5-0.4c0.9,0,1.8,0.1,2.4,0.4
	c0.7,0.3,1.2,0.6,1.7,1.1c0.4,0.5,0.8,1,1,1.7c0.2,0.6,0.3,1.3,0.3,2.1c0,0.8-0.1,1.5-0.4,2.1s-0.6,1.2-1.1,1.6
	c-0.5,0.4-1.1,0.8-1.8,1C381.2,300.9,380.4,301,379.6,301z M377.5,296c0,1.2,0.2,2.2,0.6,3c0.4,0.7,0.9,1.1,1.7,1.1
	c0.7,0,1.3-0.4,1.7-1.2c0.4-0.8,0.6-1.8,0.6-3s-0.2-2.3-0.6-3.1s-0.9-1.2-1.7-1.2c-0.8,0-1.3,0.4-1.7,1.1
	C377.6,293.4,377.5,294.5,377.5,296z"/>
<path d="M392.8,300.7c-0.4,0-0.9,0-1.4-0.1c-0.5,0-1.1,0-1.6,0s-1.1,0-1.6,0c-0.5,0-1,0-1.4,0.1V300l1.1-0.3c0.2,0,0.4-0.1,0.5-0.2
	c0.1-0.1,0.1-0.2,0.1-0.5v-12.2c0-0.4-0.1-0.6-0.3-0.8c-0.2-0.2-0.6-0.4-1.3-0.6v-0.6c0.2,0,0.4-0.1,0.7-0.1c0.3-0.1,0.7-0.1,1-0.2
	c0.4-0.1,0.8-0.1,1.1-0.2c0.4-0.1,0.7-0.2,1-0.3h0.6V299c0,0.3,0,0.5,0.1,0.6c0.1,0.1,0.2,0.1,0.5,0.2l0.8,0.2V300.7z"/>
<path d="M400.2,300.7c-0.4,0-0.9,0-1.4-0.1c-0.5,0-1.1,0-1.6,0s-1.1,0-1.6,0c-0.5,0-1,0-1.4,0.1V300l1.1-0.3c0.2,0,0.4-0.1,0.5-0.2
	c0.1-0.1,0.1-0.2,0.1-0.5v-12.2c0-0.4-0.1-0.6-0.3-0.8c-0.2-0.2-0.6-0.4-1.3-0.6v-0.6c0.2,0,0.4-0.1,0.7-0.1c0.3-0.1,0.7-0.1,1-0.2
	c0.4-0.1,0.8-0.1,1.1-0.2c0.4-0.1,0.7-0.2,1-0.3h0.6V299c0,0.3,0,0.5,0.1,0.6c0.1,0.1,0.2,0.1,0.5,0.2l0.8,0.2V300.7z"/>
<path d="M411,294.7h-6.2c0,0.2-0.1,0.3-0.1,0.3c0,0,0,0.1,0,0.3c0,0.5,0.1,1,0.2,1.5c0.1,0.4,0.4,0.8,0.6,1.1c0.3,0.3,0.6,0.6,1,0.8
	c0.4,0.2,0.8,0.3,1.3,0.3c0.6,0,1.1-0.1,1.6-0.2c0.5-0.2,1-0.5,1.6-1l0.1,0.4c-0.2,0.4-0.4,0.8-0.7,1.1c-0.3,0.3-0.6,0.7-0.9,0.9
	c-0.4,0.3-0.8,0.5-1.3,0.6c-0.5,0.2-1.1,0.2-1.7,0.2c-0.7,0-1.3-0.1-1.9-0.4s-1.1-0.6-1.5-1c-0.4-0.5-0.7-1-1-1.6
	c-0.2-0.6-0.3-1.3-0.3-2.1c0-0.8,0.1-1.5,0.4-2.1c0.2-0.6,0.6-1.2,1-1.6c0.4-0.5,1-0.8,1.6-1.1c0.6-0.2,1.3-0.4,2.1-0.4
	c0.7,0,1.3,0.1,1.8,0.3c0.5,0.2,0.9,0.5,1.2,0.9s0.6,0.8,0.7,1.3C410.9,293.6,411,294.2,411,294.7z M404.9,293.8h2.4
	c0.4,0,0.7-0.2,0.7-0.7c0-0.5-0.1-0.9-0.2-1.2c-0.1-0.3-0.4-0.5-0.9-0.5C405.9,291.4,405.2,292.2,404.9,293.8z"/>
<path d="M422,298.2c-0.2,0.3-0.4,0.6-0.6,0.9c-0.2,0.3-0.5,0.6-0.9,0.9s-0.7,0.5-1.2,0.7c-0.4,0.2-1,0.3-1.5,0.3
	c-1.5,0-2.6-0.4-3.5-1.3c-0.9-0.9-1.3-2.1-1.3-3.7c0-0.8,0.1-1.5,0.4-2.2c0.3-0.7,0.7-1.2,1.2-1.7c0.5-0.5,1.1-0.8,1.8-1.1
	c0.7-0.3,1.4-0.4,2.2-0.4c0.9,0,1.6,0.1,2.2,0.4s0.9,0.7,0.9,1.2c0,0.3-0.1,0.6-0.3,0.8c-0.2,0.2-0.4,0.3-0.7,0.3
	c-0.2,0-0.5-0.1-0.7-0.3c-0.2-0.2-0.5-0.4-0.7-0.6c-0.2-0.2-0.5-0.4-0.8-0.6c-0.3-0.2-0.5-0.3-0.8-0.3c-0.4,0-0.7,0.1-0.9,0.3
	s-0.5,0.5-0.6,0.9c-0.2,0.4-0.3,0.7-0.3,1.2c-0.1,0.4-0.1,0.8-0.1,1.2c0,0.6,0.1,1.1,0.2,1.5s0.4,0.8,0.6,1.1
	c0.3,0.3,0.6,0.5,0.9,0.7c0.4,0.2,0.7,0.3,1.1,0.3c0.6,0.1,1.2,0,1.7-0.2c0.5-0.2,1-0.5,1.5-0.9L422,298.2z"/>
<path d="M427.5,288.5h0.5c0,0.4,0,0.9,0,1.3c0,0.4,0,0.9,0,1.3l3.1-0.1v1.2l-3.1,0.1v4.5c0,0.7,0.1,1.3,0.3,1.6
	c0.2,0.3,0.6,0.5,1.1,0.5c0.2,0,0.5,0,0.8-0.1c0.3-0.1,0.6-0.2,1-0.5l0.2,0.4c-0.1,0.2-0.3,0.5-0.5,0.7c-0.2,0.3-0.4,0.5-0.7,0.7
	c-0.3,0.2-0.6,0.4-1,0.5s-0.8,0.2-1.2,0.2c-0.9,0-1.6-0.2-2.1-0.7s-0.7-1.3-0.7-2.4v-5.4c-0.2,0-0.5,0-0.7,0s-0.4,0-0.7,0
	s-0.4-0.1-0.4-0.3c0-0.2,0.1-0.4,0.3-0.5c0.4-0.1,0.7-0.3,1-0.5c0.3-0.2,0.6-0.3,0.8-0.5c0.1-0.1,0.2-0.2,0.4-0.3
	c0.2-0.1,0.4-0.3,0.5-0.5c0.2-0.2,0.4-0.4,0.5-0.6C427.3,289,427.4,288.8,427.5,288.5z"/>
<path d="M438.7,300.7c-0.3,0-0.7-0.1-1.2-0.1c-0.5,0-1.1,0-1.8,0c-0.7,0-1.3,0-1.8,0c-0.5,0-0.9,0-1.2,0.1V300l1-0.2
	c0.5-0.1,0.8-0.4,0.8-0.9v-4.5c0-0.4-0.1-0.7-0.3-0.9c-0.2-0.2-0.6-0.3-1.2-0.5v-0.6c0.3-0.1,0.6-0.2,1-0.3c0.4-0.1,0.7-0.3,1.1-0.4
	c0.4-0.2,0.7-0.3,1-0.5c0.3-0.2,0.5-0.4,0.7-0.6c0.1,0,0.2,0,0.3,0s0.2,0,0.3,0v8.3c0,0.2,0,0.4,0.1,0.6c0.1,0.1,0.2,0.2,0.4,0.3
	l0.9,0.3V300.7z M436.2,285.2c0.4,0,0.8,0.2,1.1,0.5c0.3,0.3,0.5,0.7,0.5,1.1c0,0.4-0.2,0.7-0.5,1c-0.3,0.3-0.7,0.5-1.1,0.5
	c-0.4,0-0.8-0.1-1.1-0.4c-0.3-0.3-0.4-0.7-0.4-1.1c0-0.4,0.2-0.8,0.5-1.1C435.4,285.4,435.7,285.2,436.2,285.2z"/>
<path d="M445.6,301c-0.9,0-1.6-0.1-2.3-0.4c-0.7-0.3-1.2-0.6-1.6-1.1c-0.4-0.5-0.8-1-1-1.6c-0.2-0.6-0.3-1.3-0.3-2.1
	c0-0.8,0.1-1.5,0.3-2.1c0.2-0.6,0.5-1.2,1-1.6c0.4-0.5,1-0.8,1.7-1.1c0.7-0.3,1.5-0.4,2.5-0.4c0.9,0,1.8,0.1,2.4,0.4
	c0.7,0.3,1.2,0.6,1.7,1.1c0.4,0.5,0.8,1,1,1.7c0.2,0.6,0.3,1.3,0.3,2.1c0,0.8-0.1,1.5-0.4,2.1s-0.6,1.2-1.1,1.6
	c-0.5,0.4-1.1,0.8-1.8,1C447.2,300.9,446.4,301,445.6,301z M443.5,296c0,1.2,0.2,2.2,0.6,3c0.4,0.7,0.9,1.1,1.7,1.1
	c0.7,0,1.3-0.4,1.7-1.2c0.4-0.8,0.6-1.8,0.6-3s-0.2-2.3-0.6-3.1s-0.9-1.2-1.7-1.2c-0.8,0-1.3,0.4-1.7,1.1
	C443.6,293.4,443.5,294.5,443.5,296z"/>
<path d="M465.3,300.7c-0.9-0.1-1.8-0.1-2.9-0.1s-2,0-2.9,0.1V300l0.9-0.2c0.4,0,0.5-0.4,0.5-1v-4.2c0-0.4,0-0.7,0-1
	c0-0.3-0.1-0.5-0.2-0.7c-0.1-0.2-0.2-0.3-0.4-0.4c-0.2-0.1-0.5-0.1-0.8-0.1c-0.4,0-0.8,0.1-1.2,0.4c-0.4,0.2-0.8,0.5-1.1,0.9v5.5
	c0,0.3,0.2,0.5,0.6,0.6l0.7,0.4v0.6c-0.1,0-0.3,0-0.4,0s-0.3,0-0.5,0c-0.2,0-0.4,0-0.5,0c-0.2,0-0.5,0-0.8,0h-0.8
	c-0.5,0-1.1,0-1.6,0c-0.5,0-0.9,0-1.2,0.1V300l1.1-0.2c0.2,0,0.3-0.1,0.4-0.2c0.1-0.1,0.1-0.3,0.1-0.5v-4.9c0-0.5-0.1-0.9-0.3-1
	c-0.2-0.2-0.6-0.3-1.1-0.4v-0.5c0.3-0.1,0.6-0.1,0.9-0.2s0.7-0.2,1.1-0.4c0.4-0.2,0.7-0.4,1-0.6c0.3-0.2,0.5-0.5,0.7-0.8h0.7v2.4
	c0.5-0.6,1-1.1,1.6-1.5c0.6-0.3,1.2-0.5,1.8-0.5c1,0,1.7,0.3,2.3,0.9c0.6,0.6,0.9,1.4,0.9,2.6v4.8c0,0.3,0,0.6,0.1,0.7
	c0.1,0.2,0.2,0.3,0.5,0.3l0.9,0.2V300.7z"/>
<g>
	<g>
		<path class="st15" d="M263,248H122V107h141V248z M128,242h129V113H128V242z"/>
		<g>
			<path class="st15" d="M151.3,134.5h9.6v-8c0-1.9,0-3.6-0.1-5.1c3.3,0.1,5.6,0.3,6.9,0.5c1.3,0.2,2,0.6,2,1.1c0,0.5-0.5,1-1.6,1.5
				v9.9h9.2c0.9-1.8,1.6-2.9,1.9-3.3c0.3-0.4,0.8-0.6,1.3-0.6c0.5,0,1.6,0.5,3.2,1.4c1.6,1,2.9,1.7,3.8,2.4c0.9,0.6,1.4,1.2,1.4,1.8
				s-0.7,1-2.2,1.4v14c0,0.6,0,1.2,0.1,1.7l0.1,1.3c0,0.3-0.2,0.5-0.5,0.7c-0.3,0.2-1.2,0.4-2.7,0.7c-1.5,0.3-2.9,0.5-4.1,0.5
				c-0.3,0-0.5-0.1-0.6-0.2c-0.1-0.1-0.1-0.3-0.1-0.7v-3.3h-10.8v14.6c0,1.3,0,2.6,0.1,4l0.1,1.9c0,0.3,0,0.5-0.1,0.6
				c-0.1,0.1-0.5,0.3-1.3,0.6c-0.8,0.3-1.8,0.5-3.1,0.8c-1.3,0.2-2.2,0.4-2.6,0.4c-0.3,0-0.4-0.3-0.4-0.9l0.1-2.2
				c0-1.5,0.1-3.2,0.1-5.1v-14.6h-10.6v2.7c0,0.2-0.1,0.4-0.2,0.5c-0.1,0.1-0.5,0.3-1.2,0.5c-0.7,0.2-1.7,0.4-2.9,0.6
				c-1.2,0.2-2.2,0.3-2.9,0.3c-0.3,0-0.4-0.2-0.3-0.6c0.1-0.9,0.1-2.3,0.1-4.2v-15.7c0-1.6-0.1-3.2-0.2-4.8
				C146.2,132.4,149.1,133.4,151.3,134.5z M160.9,136.4h-9.2c-0.3,0.4-0.7,0.7-1.4,0.9v13.2h10.6V136.4z M178.9,150.4v-14h-10.8v14
				H178.9z"/>
			<path class="st15" d="M210.6,136.3h-7.4c-0.8,0-1.4,0.2-2.1,0.6l-1.5-2.7c0.9,0.1,1.9,0.2,2.8,0.2h36.7c0.6-1.1,1.2-2.1,1.9-3.1
				c0.7-1,1.1-1.6,1.3-1.8c0.2-0.2,0.4-0.3,0.6-0.3c0.4,0,1.7,0.9,3.9,2.6c2.2,1.7,3.3,2.9,3.3,3.6s-0.5,0.9-1.5,0.9h-10.8
				c1.8,0.5,2.9,0.9,3.3,1.2c0.4,0.3,0.7,0.6,0.7,0.9c0,0.4-0.3,0.7-0.9,0.9c-0.6,0.2-1.1,0.6-1.5,1c-0.3,0.5-0.8,1.3-1.3,2.6
				c-2.2,5.5-5.4,10.7-9.6,15.6c6.3,4.1,13.2,6.7,20.8,8c1.2,0.2,1.8,0.4,1.8,0.6c0,0.2-0.5,0.5-1.5,0.8c-3,0.8-5.2,2.7-6.4,5.9
				c-0.2,0.5-0.7,0.7-1.5,0.7c-0.8,0-3-1.1-6.7-3.2c-3.7-2.1-7.4-4.8-11.1-8c-2.8,2.3-6,4.4-9.7,6.3c-3.6,1.9-7.1,3.4-10.3,4.5
				c-3.3,1.1-5.4,1.7-6.3,1.7c-0.5,0-0.7-0.1-0.7-0.3s0.5-0.5,1.5-0.9c4-1.5,7.9-3.5,11.7-6.1s7.3-5.5,10.1-8.6
				C215.3,153.7,212.1,146,210.6,136.3z M231.8,136.3h-19.7c2.7,7.5,6.7,13.7,11.9,18.6c2.2-3.1,3.8-6,4.9-8.6
				C230,143.7,230.9,140.4,231.8,136.3z M216.8,122.7c8.1,0,12.1,1.8,12.1,5.3c0,1.4-0.5,2.6-1.4,3.6c-1,1-2,1.5-3.1,1.5
				c-1.1,0-2-0.3-2.7-0.9c-0.6-0.6-1-1.3-1-2.1c-0.1-3.6-1.6-5.9-4.5-6.7c-0.4-0.1-0.6-0.2-0.6-0.4
				C215.7,122.8,216.1,122.7,216.8,122.7z"/>
			<path class="st15" d="M149.8,195.3h-7.4c-0.8,0-1.4,0.2-2.1,0.6l-1.5-2.7c0.9,0.1,1.9,0.2,2.8,0.2h36.7c0.6-1.1,1.2-2.1,1.9-3.1
				c0.7-1,1.1-1.6,1.3-1.8c0.2-0.2,0.4-0.3,0.6-0.3c0.4,0,1.7,0.9,3.9,2.6c2.2,1.7,3.3,2.9,3.3,3.6s-0.5,0.9-1.5,0.9h-10.8
				c1.8,0.5,2.9,0.9,3.3,1.2c0.4,0.3,0.7,0.6,0.7,0.9c0,0.4-0.3,0.7-0.9,0.9c-0.6,0.2-1.1,0.6-1.5,1c-0.3,0.5-0.8,1.3-1.3,2.6
				c-2.2,5.5-5.4,10.7-9.6,15.6c6.3,4.1,13.2,6.7,20.8,8c1.2,0.2,1.8,0.4,1.8,0.6c0,0.2-0.5,0.5-1.5,0.8c-3,0.8-5.2,2.7-6.4,5.9
				c-0.2,0.5-0.7,0.7-1.5,0.7c-0.8,0-3-1.1-6.7-3.2c-3.7-2.1-7.4-4.8-11.1-8c-2.8,2.3-6,4.4-9.7,6.3c-3.6,1.9-7.1,3.4-10.3,4.5
				c-3.3,1.1-5.4,1.7-6.3,1.7c-0.5,0-0.7-0.1-0.7-0.3s0.5-0.5,1.5-0.9c4-1.5,7.9-3.5,11.7-6.1s7.3-5.5,10.1-8.6
				C154.6,212.7,151.3,205,149.8,195.3z M171.1,195.3h-19.7c2.7,7.5,6.7,13.7,11.9,18.6c2.2-3.1,3.8-6,4.9-8.6
				C169.2,202.7,170.2,199.4,171.1,195.3z M156.1,181.7c8.1,0,12.1,1.8,12.1,5.3c0,1.4-0.5,2.6-1.4,3.6c-1,1-2,1.5-3.1,1.5
				c-1.1,0-2-0.3-2.7-0.9c-0.6-0.6-1-1.3-1-2.1c-0.1-3.6-1.6-5.9-4.5-6.7c-0.4-0.1-0.6-0.2-0.6-0.4
				C154.9,181.7,155.3,181.7,156.1,181.7z"/>
			<path class="st15" d="M208.3,194c0.7-1.3,1.3-2.3,1.8-3s0.8-1.1,1-1.1c0.4,0,1.4,0.8,3.2,2.4c1.7,1.6,2.6,2.7,2.6,3.2
				c0,0.3-0.4,0.5-1.1,0.5h-7.5v5.5c5.3,1.3,8,3.5,8,6.6c0,1.1-0.4,2-1.1,2.7c-0.7,0.7-1.6,1.1-2.5,1.1c-1,0-1.6-0.2-1.9-0.6
				c-0.3-0.4-0.6-1.1-0.6-2.1c-0.2-2.5-0.8-4.4-1.8-5.6v28.8c0,0.4-0.2,0.7-0.6,0.9c-0.4,0.2-1.1,0.5-2.2,0.7c-1,0.2-2.1,0.4-3,0.4
				c-0.3,0-0.5-0.2-0.5-0.6l0.1-2.3c0-1.6,0.1-3.4,0.1-5.3v-16.4c-0.8,3-2.4,5.9-4.7,8.5c-2.3,2.6-3.7,3.9-4.2,3.9
				c-0.2,0-0.3-0.1-0.3-0.4c0-0.2,0.2-0.6,0.5-1c3.2-4.7,5.6-12.9,7.1-24.7h-3.6c-0.8,0-1.4,0.2-2.1,0.6l-1.5-2.7
				c0.9,0.1,1.9,0.2,2.9,0.2h5.9v-6.4c0-2.5-0.1-4.7-0.2-6.5c5.2,0.1,7.8,0.6,7.8,1.4c0,0.4-0.5,0.8-1.5,1.3V194z M225.7,204.5
				v-18.5c0-1.9,0-3.6-0.1-5.1c2.1,0.1,3.8,0.2,5.3,0.5s2.3,0.4,2.5,0.6c0.2,0.2,0.3,0.3,0.3,0.5c0,0.4-0.5,0.8-1.4,1.3v20.7h4.7
				c0.3-0.6,0.8-1.3,1.3-2.2c0.5-0.9,0.9-1.3,1-1.4c0.1,0,0.2-0.1,0.3-0.1c0.2,0,0.7,0.2,1.5,0.7c0.8,0.5,1.9,1.1,3,1.9
				c1.2,0.8,1.9,1.3,2.3,1.6c0.3,0.3,0.5,0.6,0.5,0.8c0,0.5-0.6,0.9-1.8,1.3v21.3l0.1,3c0,0.4-0.2,0.7-0.6,0.9s-1.1,0.4-2,0.7
				c-0.9,0.3-2.2,0.5-4,0.5c-0.5,0-0.7-0.3-0.7-1v-2.8h-20.2c-0.8,0-1.5,0.2-2.2,0.7l-1.5-2.7c0.9,0.1,1.9,0.2,2.8,0.2h21v-10.4
				h-18.2c-0.8,0-1.5,0.2-2.2,0.7l-1.5-2.7c0.9,0.1,1.9,0.2,2.8,0.2h19.1v-9.2h-17.7c-0.8,0-1.5,0.2-2.2,0.7l-1.5-2.7
				c0.9,0.1,1.9,0.2,2.9,0.2H225.7z M214.3,185.8c0.3,0,1.4,0.5,3.3,1.5c1.9,1,3.4,2.3,4.5,3.7c1.1,1.5,1.7,3,1.7,4.6
				c0,1.6-0.4,2.9-1.1,3.7c-0.7,0.9-1.6,1.3-2.6,1.3c-1,0-1.8-0.3-2.3-0.8c-0.6-0.6-0.8-1.2-0.8-2c0-0.3,0.1-0.8,0.3-1.5
				c0.2-0.7,0.3-1.6,0.3-2.6c0-2.3-1-4.6-2.9-7.1c-0.3-0.4-0.5-0.6-0.5-0.7C214.1,185.9,214.2,185.8,214.3,185.8z M238.5,184.2
				c2,0.9,3.9,1.8,5.7,2.7c1.8,1,2.8,1.5,3,1.7c0.2,0.2,0.3,0.4,0.3,0.7c0,0.2-0.2,0.4-0.7,0.6c-1.1,0.3-2.1,0.8-3,1.6
				c-0.9,0.8-3.8,3.9-8.7,9.4c-0.6,0.6-0.9,1-1,1c-0.1,0-0.1-0.1-0.1-0.2c0-0.2,0.1-0.5,0.3-1.1
				C236.3,194.4,237.7,188.9,238.5,184.2z"/>
		</g>
	</g>
	<path class="st15" d="M287.7,206.4h16.4c0.8-1.4,1.2-2.3,1.4-2.7c0.2-0.4,0.4-0.6,0.7-0.6c0.3,0,0.9,0.4,1.8,1.1l2.4,1.9
		c0.7,0.6,1,1,1,1.2s-0.3,0.4-0.9,0.4h-11.4c-0.2,0.3-0.4,0.5-0.7,0.7v2.8h3.9c0.8-1.4,1.3-2.2,1.5-2.5c0.2-0.2,0.4-0.4,0.7-0.4
		c0.3,0,1.1,0.5,2.6,1.6c1.4,1.1,2.1,1.8,2.1,2.1s-0.3,0.5-0.9,0.5h-9.9v3.5h4c0.3-0.5,0.6-1,0.9-1.6c0.3-0.5,0.6-0.8,0.7-0.9
		c0.1-0.1,0.2-0.1,0.4-0.1c0.4,0,1.2,0.5,2.7,1.6s2.1,1.7,2.1,2c0,0.3-0.3,0.4-0.9,0.4h-9.9v3.4h6.4c0.5-0.9,1-1.7,1.3-2.2
		c0.4-0.6,0.6-0.8,0.8-0.8c0.3,0,0.9,0.3,1.7,0.9l2.4,1.8c0.7,0.6,1.1,1,1.1,1.2s-0.3,0.4-0.8,0.4h-15.7c1.5,0.3,2.3,0.6,2.5,0.7
		c0.2,0.1,0.3,0.3,0.3,0.5c0,0.4-0.3,0.6-0.9,0.6v1.5h10.1c0.2-0.4,0.6-0.9,1.1-1.7c0.5-0.8,0.9-1.2,1-1.3c0.1-0.1,0.2-0.1,0.3-0.1
		c0.2,0,1.1,0.6,2.5,1.8c1.4,1.2,2.1,1.9,2.1,2.2c0,0.3-0.3,0.5-0.8,0.5H299c1.5,1.2,2.9,2.1,3.9,2.7c1.1,0.6,2.3,1,3.7,1.2
		c1.4,0.3,3.6,0.5,6.5,0.8c0.5,0.1,0.7,0.1,0.7,0.2c0,0.1-0.3,0.3-0.8,0.5c-0.5,0.2-1,0.7-1.6,1.3c-0.5,0.6-1,1.3-1.2,2.2
		c-0.1,0.4-0.4,0.6-0.7,0.6s-1.6-0.5-3.8-1.4s-3.9-1.9-5-3.1s-2.2-2.8-3.1-5v6.2c0,1.1,0,1.8,0,2.2l0,1.1c0,0.3-0.1,0.5-0.4,0.7
		c-0.3,0.2-0.7,0.4-1.5,0.6c-0.7,0.2-1.4,0.3-2.1,0.3c-0.7,0-1.1-0.2-1.1-0.6l0.1-1.6c0-0.7,0-1.6,0-2.7v-4.7
		c-1.4,1.4-2.9,2.6-4.5,3.6c-1.6,1-3.8,2-6.5,3.1c-2.8,1.1-4.3,1.6-4.8,1.6c-0.1,0-0.1,0-0.1,0c0-0.1,0.3-0.3,0.9-0.7
		c2.8-1.7,5-3.1,6.5-4.5c1.5-1.3,2.9-2.9,4.3-4.7h-10.2c-0.5,0-1,0.1-1.5,0.4l-1.1-1.9c0.7,0.1,1.3,0.1,2,0.1h14.9
		c0-1.7,0-2.8,0-3.3h-5.5c0,0.7-0.4,1.2-1.3,1.5c-0.9,0.3-1.7,0.4-2.3,0.4s-0.9-0.2-0.9-0.7l0.1-4.6v-8.1c-1.1,1.1-2.5,2.2-4,3.2
		s-2.4,1.6-2.5,1.6c0,0,0,0,0,0c0-0.1,0.2-0.4,0.7-0.9c3.5-3.7,6-8.4,7.5-14.1c3.4,0.8,5.3,1.4,5.7,1.6c0.5,0.2,0.7,0.5,0.7,0.7
		c0,0.3-0.2,0.4-0.5,0.5c-0.4,0.1-0.7,0.2-1,0.5c-0.3,0.3-0.8,0.7-1.3,1.3c-0.5,0.6-0.8,1-1,1.1
		C287.4,206.1,287.6,206.2,287.7,206.4z M293.9,207.8h-6.2c-0.1,0.1-0.2,0.1-0.3,0.2v3.3h6.6V207.8z M293.9,212.5h-6.6v3.5h6.6
		V212.5z M293.9,220.8v-3.4h-6.6v3.4H293.9z M294.8,200.2c1.6,0,2.9,0.3,3.8,0.8c0.9,0.5,1.3,1.3,1.3,2.3c0,0.7-0.3,1.4-0.9,2
		c-0.6,0.6-1.2,0.9-1.7,0.9s-1-0.1-1.4-0.3c-0.4-0.2-0.6-0.4-0.8-0.7c-0.2-0.3-0.3-0.6-0.3-0.9l0-0.8c0-1.3-0.4-2.1-1.1-2.3
		c-0.5-0.2-0.8-0.4-0.8-0.7C293,200.4,293.6,200.2,294.8,200.2z"/>
</g>
</svg>
